<?xml version="1.0" ?>
<svg baseProfile="full" height="336px" version="1.1" viewBox="-207.8837977936189 -25.873235095646788 320.7218910950807 179.382184734573" width="600px" xmlns="http://www.w3.org/2000/svg" xmlns:ev="http://www.w3.org/2001/xml-events" xmlns:xlink="http://www.w3.org/1999/xlink">
	<defs/>
	<path d="M 0.0,0.0 C 11.62333583,3.64550078 24.37435217,9.398092 31.27734375,19.953125 C 32.83065485,23.24585821 33.51513911,26.39402626 33.0,30.0 C 31.0,32.0 31.0,32.0 28.64453125,32.328125 C 25.37718014,31.9227225 24.15300923,30.89548883 21.6875,28.75 C 18.79580191,26.34907263 16.18472723,24.463324 12.75,22.9375 C 5.86065819,19.67053037 3.40942672,14.24571982 0.69921875,7.46484375 C -0.03931778,4.86139935 -0.12956463,2.69206512 0.0,0.0" style="fill: #FFFFFF;" transform="translate(744,1151)"/>
	<path d="M 0.0,0.0 C 1.65,0.33 3.3,0.66 5.0,1.0 C 2.82575883,3.50037734 1.26954202,4.43628586 -2.0,5.0 C -1.34,3.35 -0.68,1.7 0.0,0.0" style="fill: #FFFFFF;" transform="translate(156,1128)"/>
	<path d="M 0.0,0.0 C 2.50116584,2.30557704 4.54010176,4.85310663 6.6484375,7.51953125 C 7.3084375,7.84953125 7.9684375,8.17953125 8.6484375,8.51953125 C 8.6484375,9.17953125 8.6484375,9.83953125 8.6484375,10.51953125 C 9.3084375,10.51953125 9.9684375,10.51953125 10.6484375,10.51953125 C 12.77666172,12.58497599 14.36091681,14.85178839 15.6484375,17.51953125 C 15.4609375,21.45703125 15.4609375,21.45703125 14.6484375,24.51953125 C 11.27880472,25.52325165 9.00736163,26.02979921 5.671875,24.77734375 C 0.90139381,21.90076146 -2.54679108,18.23912162 -6.16723633,14.08227539 C -13.64802409,5.5162245 -20.58808325,1.11201718 -31.3515625,-2.48046875 C -31.3515625,-3.14046875 -31.3515625,-3.80046875 -31.3515625,-4.48046875 C -33.8265625,-5.47046875 -33.8265625,-5.47046875 -36.3515625,-6.48046875 C -36.3515625,-7.47046875 -36.3515625,-8.46046875 -36.3515625,-9.48046875 C -34.83124446,-9.65177219 -33.3102686,-9.81723948 -31.7890625,-9.98046875 C -30.51869141,-10.1196875 -30.51869141,-10.1196875 -29.22265625,-10.26171875 C -17.86321568,-11.12719994 -8.86177631,-7.0856819 0.0,0.0" style="fill: #FFFFFF;" transform="translate(771.3515625,1132.48046875)"/>
	<path d="M 0.0,0.0 C 6.12154829,3.18665793 9.83782952,6.70061778 12.19921875,13.23046875 C 13.26280508,17.03458428 13.90670272,20.80581805 14.32421875,24.73046875 C 5.94921875,24.73046875 5.94921875,24.73046875 2.13671875,22.73046875 C 1.42128906,22.35921875 0.70585938,21.98796875 -0.03125,21.60546875 C -0.57394531,21.31671875 -1.11664062,21.02796875 -1.67578125,20.73046875 C -1.67578125,20.07046875 -1.67578125,19.41046875 -1.67578125,18.73046875 C -2.33578125,18.73046875 -2.99578125,18.73046875 -3.67578125,18.73046875 C -4.00578125,19.72046875 -4.33578125,20.71046875 -4.67578125,21.73046875 C -5.06378906,20.98152344 -5.45179688,20.23257812 -5.8515625,19.4609375 C -7.88736627,16.41377083 -9.79713119,15.01185299 -12.86328125,13.04296875 C -14.49967678,11.98715418 -16.11396738,10.89377101 -17.67578125,9.73046875 C -17.67578125,9.07046875 -17.67578125,8.41046875 -17.67578125,7.73046875 C -18.33578125,7.73046875 -18.99578125,7.73046875 -19.67578125,7.73046875 C -21.48197648,3.26810406 -21.79236626,0.42012581 -20.67578125,-4.26953125 C -13.57714401,-6.63574366 -6.45507715,-2.96486706 0.0,0.0" style="fill: #FFFFFF;" transform="translate(701.67578125,1119.26953125)"/>
	<path d="M 0.0,0.0 C 2.86503068,1.2843241 5.15427705,2.41598787 7.0,5.0 C 7.40656802,8.1847828 7.29928017,10.28172758 6.0625,13.25 C 0.82197464,17.69650637 -7.07005177,17.25575661 -13.6171875,17.4609375 C -16.0,17.0 -16.0,17.0 -17.83984375,15.1796875 C -19.44398796,12.1658408 -18.80808112,10.23232446 -18.0,7.0 C -17.01,6.67 -16.02,6.34 -15.0,6.0 C -15.0,5.34 -15.0,4.68 -15.0,4.0 C -10.45298292,1.33833147 -7.25905171,0.59545756 -2.0,1.0 C -1.34,1.33 -0.68,1.66 0.0,2.0 C 0.0,1.34 0.0,0.68 0.0,0.0 M -10.0,6.8125 C -12.22492307,8.75201353 -12.22492307,8.75201353 -12.0,11.0 C -7.18061476,11.23509196 -3.53701494,10.45184478 1.0,9.0 C 1.0,8.01 1.0,7.02 1.0,6.0 C -4.76152636,4.66538589 -4.76152636,4.66538589 -10.0,6.8125" style="fill: #FFFFFF;" transform="translate(727,1105)"/>
	<path d="M 0.0,0.0 C 3.54337828,2.4879039 4.77474037,4.02387494 5.75,8.25 C 4.49397232,14.53013841 0.82888489,18.59041623 -3.9765625,22.68359375 C -10.42727234,26.94782703 -17.49791006,27.03508689 -25.0,26.0 C -27.61426451,24.93323357 -28.92353817,23.95431702 -31.0,22.0 C -30.41711019,15.87965701 -28.12682807,12.12682807 -23.8125,7.8125 C -20.66299815,5.78282103 -17.69978962,4.79783286 -14.1328125,3.7265625 C -11.82356562,3.03535621 -11.82356562,3.03535621 -9.375,1.3125 C -6.0090583,-0.54762568 -3.78361865,-0.54051695 0.0,0.0 M -13.59765625,9.69921875 C -16.0,11.0 -16.0,11.0 -19.4375,12.0625 C -22.41698671,13.15255611 -23.39009299,14.31682165 -25.0,17.0 C -20.07954548,20.28030301 -15.04210511,19.35208709 -9.375,18.375 C -5.13448107,16.64738118 -2.2643384,14.15519639 1.0,11.0 C 0.29801937,7.82369166 0.29801937,7.82369166 -2.4375,6.5 C -7.18207941,5.83409412 -9.50748519,7.41733384 -13.59765625,9.69921875" style="fill: #FFFFFF;" transform="translate(162,1091)"/>
	<path d="M 0.0,0.0 C 3.14100001,0.8506875 4.03930205,1.32742935 6.0,3.8125 C 7.52987334,10.04673387 5.26725598,15.19877246 2.38671875,20.6484375 C 1.07655333,22.69303368 -0.13924052,24.25768749 -2.0,25.8125 C -5.21947747,25.8125 -6.28129252,24.55737422 -8.6875,22.375 C -11.97373956,18.7334913 -11.97373956,18.7334913 -12.0546875,15.89453125 C -11.59003307,10.02574379 -10.10672075,6.09725777 -6.0,1.8125 C -3.0,-0.1875 -3.0,-0.1875 0.0,0.0 M -3.0,6.8125 C -5.0995533,7.96934329 -5.0995533,7.96934329 -7.0,9.8125 C -7.51977427,12.7826387 -7.4294796,14.16828061 -5.75,16.6875 C -4.05728885,18.00897307 -4.05728885,18.00897307 -1.9375,17.75 C 0.12533121,16.94060208 0.12533121,16.94060208 1.3125,15.0 C 2.12918681,12.40145106 2.15132212,11.27961882 1.0,8.8125 C -0.9837767,7.52813266 -0.9837767,7.52813266 -3.0,6.8125" style="fill: #FFFFFF;" transform="translate(665,1087.1875)"/>
	<path d="M 0.0,0.0 C 2.0,3.0 2.0,3.0 1.625,5.6875 C 1.41875,6.450625 1.2125,7.21375 1.0,8.0 C 0.01,7.34 -0.98,6.68 -2.0,6.0 C -2.33,6.99 -2.66,7.98 -3.0,9.0 C -4.32,8.67 -5.64,8.34 -7.0,8.0 C -6.67,7.34 -6.34,6.68 -6.0,6.0 C -5.67,6.0 -5.34,6.0 -5.0,6.0 C -4.67,5.01 -4.34,4.02 -4.0,3.0 C -1.9375,2.3125 -1.9375,2.3125 0.0,2.0 C 0.0,1.34 0.0,0.68 0.0,0.0" style="fill: #FFFFFF;" transform="translate(255,1086)"/>
	<path d="M 0.0,0.0 C 4.00472059,0.57210294 7.02210663,1.18754515 10.0,4.0 C 10.43542686,6.56523216 10.51364945,9.08022857 10.62109375,11.6796875 C 11.22246721,16.94945493 13.11446085,21.65907504 14.94140625,26.6171875 C 15.90402931,29.69331875 16.32651629,31.82076239 16.0,35.0 C 14.875,36.8125 14.875,36.8125 13.0,38.0 C 8.99575323,38.71186609 7.40209148,38.26320606 3.98046875,36.0234375 C 0.18869924,32.71335858 -0.73232889,28.89134729 -1.875,24.125 C -2.08640625,23.34769531 -2.2978125,22.57039063 -2.515625,21.76953125 C -4.14520229,15.47343717 -5.33104617,9.495926 -2.0,3.5625 C -1.62875,2.88316406 -1.2575,2.20382812 -0.875,1.50390625 C -0.58625,1.00761719 -0.2975,0.51132813 0.0,0.0" style="fill: #FFFFFF;" transform="translate(109,1073)"/>
	<path d="M 0.0,0.0 C 0.80348877,-0.00966797 1.60697754,-0.01933594 2.43481445,-0.02929688 C 12.97785769,0.11890508 19.74905369,5.49583478 27.25,12.4375 C 34.25,19.6875 34.25,19.6875 34.25,24.9375 C 33.25,27.4375 33.25,27.4375 32.25,28.4375 C 28.49442133,28.87419519 26.55634662,28.60005127 23.1875,26.8125 C 20.00596411,24.24019438 17.79789057,21.62236322 15.25,18.4375 C 14.59,18.1075 13.93,17.7775 13.25,17.4375 C 13.25,16.7775 13.25,16.1175 13.25,15.4375 C 7.20918491,12.77243452 1.92252805,12.36668571 -4.625,12.6875 C -10.29353795,12.74148608 -13.77907422,12.10129165 -18.39453125,8.82421875 C -19.75,7.4375 -19.75,7.4375 -20.75,4.4375 C -13.91076106,0.99482691 -7.55120788,0.02923143 0.0,0.0" style="fill: #FFFFFF;" transform="translate(726.75,1071.5625)"/>
	<path d="M 0.0,0.0 C 3.24431437,0.60310972 6.10309674,1.39563865 9.0,3.0 C 10.41945807,5.19255577 11.22779587,7.31351164 12.11328125,9.765625 C 13.41620966,13.04877501 15.17270746,14.93124936 18.0,17.0 C 19.6777567,16.72793135 21.34450469,16.38499891 23.0,16.0 C 26.8993046,16.86566094 30.09974415,18.18158559 33.0625,20.875 C 34.0,23.0 34.0,23.0 34.125,25.5625 C 33.0,28.0 33.0,28.0 29.875,29.8125 C 23.94737759,31.92519638 18.58215236,31.42500397 12.84765625,29.02734375 C 5.97383428,25.20532435 2.37555548,16.12666645 0.0,9.0 C -0.06740865,7.43881572 -0.08514456,5.8749748 -0.0625,4.3125 C -0.05347656,3.50425781 -0.04445312,2.69601562 -0.03515625,1.86328125 C -0.02355469,1.24839844 -0.01195312,0.63351562 0.0,0.0" style="fill: #FFFFFF;" transform="translate(170,1067)"/>
	<path d="M 0.0,0.0 C 4.54021332,0.75670222 7.80565985,2.71439299 11.0,6.0 C 12.0625,8.9375 12.0625,8.9375 12.0,12.0 C 9.1727517,17.51986572 3.64240188,20.03523506 -2.0,22.0 C -5.87524004,22.73454857 -9.65985741,23.23418212 -13.58203125,23.640625 C -16.91897937,23.92954065 -16.91897937,23.92954065 -19.82421875,24.609375 C -22.0,25.0 -22.0,25.0 -24.0,24.0 C -24.0,24.66 -24.0,25.32 -24.0,26.0 C -32.57142857,26.14285714 -32.57142857,26.14285714 -36.0,25.0 C -36.0,24.34 -36.0,23.68 -36.0,23.0 C -36.99,23.33 -37.98,23.66 -39.0,24.0 C -43.42465098,21.05023268 -45.4028529,16.88784255 -46.4765625,11.6953125 C -46.71219847,9.80349231 -46.86417188,7.90159371 -47.0,6.0 C -43.0,6.0 -43.0,6.0 -39.859375,6.9765625 C -35.22923301,8.20439368 -31.01777611,8.38402219 -26.25,8.375 C -25.36691162,8.37338867 -24.48382324,8.37177734 -23.57397461,8.37011719 C -15.45860023,8.21793993 -8.52762355,6.97888211 -2.1875,1.625 C -1.465625,1.08875 -0.74375,0.5525 0.0,0.0" style="fill: #FFFFFF;" transform="translate(613,1066)"/>
	<path d="M 0.0,0.0 C 3.6953125,0.546875 3.6953125,0.546875 6.390625,3.46875 C 7.22469539,4.72912303 8.03407851,6.00611952 8.8203125,7.296875 C 11.7170723,11.85024824 14.20292255,15.37666002 18.6953125,18.546875 C 19.4378125,19.083125 20.1803125,19.619375 20.9453125,20.171875 C 24.18779338,21.79311544 27.24995476,22.40157274 30.8046875,23.01953125 C 31.42859375,23.19355469 32.0525,23.36757812 32.6953125,23.546875 C 34.1582705,26.472791 34.14054359,28.30304847 33.6953125,31.546875 C 30.30691872,35.358818 27.19589566,37.53005263 21.89453125,37.86328125 C 13.4585937,36.64958508 5.71878277,28.98648546 0.6953125,22.546875 C -3.15920542,15.9902208 -5.97009301,10.2880715 -5.3046875,2.546875 C -3.3046875,0.546875 -3.3046875,0.546875 0.0,0.0" style="fill: #FFFFFF;" transform="translate(673.3046875,1064.453125)"/>
	<path d="M 0.0,0.0 C 2.93164069,1.1418528 4.97090444,2.58620614 7.15625,4.83984375 C 8.20074911,7.97334107 8.09048645,8.82952631 7.15625,11.83984375 C 3.95722361,11.92870559 1.22947544,11.75042906 -1.84375,10.83984375 C -2.11960937,11.40832031 -2.39546875,11.97679687 -2.6796875,12.5625 C -6.29572276,19.63682401 -10.17010729,25.82746335 -17.84375,28.83984375 C -20.92146663,28.83984375 -22.12845449,28.35076911 -24.59375,26.58984375 C -26.25892586,24.25859755 -26.70714946,22.708455 -26.84375,19.83984375 C -24.97876479,15.69543217 -22.10183651,12.94983542 -18.84375,9.83984375 C -17.67603179,8.65337777 -16.50942089,7.46582124 -15.34375,6.27734375 C -14.44269531,5.395625 -14.44269531,5.395625 -13.5234375,4.49609375 C -12.13460467,3.12663998 -10.79459787,1.70786382 -9.46875,0.27734375 C -5.90914554,-1.67196345 -3.81520451,-1.07461594 0.0,0.0" style="fill: #FFFFFF;" transform="translate(542.84375,1065.16015625)"/>
	<path d="M 0.0,0.0 C 4.4118326,1.95177848 7.72403616,5.0186139 11.3671875,8.125 C 15.85541117,11.32136107 20.13900975,12.18291226 25.5625,12.4375 C 32.82466383,13.02952423 32.82466383,13.02952423 36.0,16.0 C 38.52353717,20.6081983 37.89365283,24.14146668 36.80078125,29.046875 C 36.0,31.0 36.0,31.0 33.0,33.0 C 30.109375,33.08203125 30.109375,33.08203125 26.75,32.8125 C 25.65171875,32.73644531 24.5534375,32.66039062 23.421875,32.58203125 C 16.52605391,31.40911191 12.12686826,28.68197412 7.25,23.75 C 6.32703125,22.83734375 5.4040625,21.9246875 4.453125,20.984375 C 0.78629449,16.52345381 -1.45482154,12.03515485 -1.25,6.1875 C -1.22679687,5.06408203 -1.22679687,5.06408203 -1.203125,3.91796875 C -1.0,2.0 -1.0,2.0 0.0,0.0" style="fill: #FFFFFF;" transform="translate(198,1057)"/>
	<path d="M 0.0,0.0 C 4.78125,0.796875 4.78125,0.796875 6.75,2.625 C 9.60400514,8.04760977 9.20798902,14.73192778 9.25,20.75 C 9.270625,21.50410156 9.29125,22.25820312 9.3125,23.03515625 C 9.35126483,28.49130556 9.35126483,28.49130556 7.60546875,31.01953125 C 6.0,32.0 6.0,32.0 4.0625,31.9375 C -0.25304605,29.97588816 -3.01764763,26.23953422 -5.2265625,22.11328125 C -6.82330111,17.75047526 -6.87251758,13.53329785 -6.0,9.0 C -4.34582921,5.68687758 -2.36093574,2.84577075 0.0,0.0" style="fill: #FFFFFF;" transform="translate(132,1056)"/>
	<path d="M 0.0,0.0 C 4.87939176,1.39411193 7.10832229,3.90345657 10.0,8.0 C 11.01387527,10.5392144 11.27421197,12.20668303 10.37207031,14.81665039 C 9.39143577,16.95481928 8.3370354,19.03894826 7.25,21.125 C 4.77890324,26.06931054 2.58307955,30.71188001 1.3125,36.125 C 0.12066282,41.11249697 -1.56763011,44.15901465 -5.0,48.0 C -7.76369069,49.65821442 -9.24257395,50.03884236 -12.4375,49.875 C -15.70183307,48.76034968 -18.21331148,47.009008 -21.0,45.0 C -20.48442745,40.37341476 -19.29924148,37.49319685 -16.75,33.625 C -13.77759949,28.75996896 -11.92761174,24.18161446 -10.375,18.75 C -8.6647536,12.80055561 -6.82142939,7.92763264 -3.0,3.0 C -2.01,2.67 -1.02,2.34 0.0,2.0 C 0.0,1.34 0.0,0.68 0.0,0.0" style="fill: #FFFFFF;" transform="translate(645,1054)"/>
	<path d="M 0.0,0.0 C 3.4294034,3.41802892 4.89829223,6.11802714 5.0,11.0 C 2.86956522,15.56521739 2.86956522,15.56521739 0.0,17.0 C -3.47834995,16.99108115 -6.94589977,16.86791426 -10.421875,16.7421875 C -15.67902535,17.12097781 -18.88767146,19.14258008 -23.0,22.3125 C -26.0,24.0 -26.0,24.0 -29.25,23.4375 C -32.0,22.0 -32.0,22.0 -34.0,19.0 C -34.4617543,15.76771989 -34.14154536,13.05808481 -33.0,10.0 C -30.36134576,7.27776848 -27.37302576,5.68140224 -24.0,4.0 C -23.23171875,3.58621094 -22.4634375,3.17242188 -21.671875,2.74609375 C -14.93120475,-0.45684062 -7.34258602,-1.4888619 0.0,0.0" style="fill: #FFFFFF;" transform="translate(462,1053)"/>
	<path d="M 0.0,0.0 C 0.0,4.29 0.0,8.58 0.0,13.0 C -8.625,10.25 -8.625,10.25 -12.0,8.0 C -12.0,7.34 -12.0,6.68 -12.0,6.0 C -12.66,5.67 -13.32,5.34 -14.0,5.0 C -13.34,5.0 -12.68,5.0 -12.0,5.0 C -12.0,3.35 -12.0,1.7 -12.0,0.0 C -7.73499324,-1.42166892 -4.44646526,-0.57997373 0.0,0.0" style="fill: #FFFFFF;" transform="translate(960,1051)"/>
	<path d="M 0.0,0.0 C 2.75,1.1875 2.75,1.1875 5.0,3.0 C 5.8125,6.1875 5.8125,6.1875 6.0,9.0 C 4.71283353,10.00578589 3.42011342,11.00446798 2.125,12.0 C 1.40570312,12.556875 0.68640625,13.11375 -0.0546875,13.6875 C -2.0,15.0 -2.0,15.0 -4.0,15.0 C -4.0,15.66 -4.0,16.32 -4.0,17.0 C -5.5390625,18.515625 -5.5390625,18.515625 -7.625,20.25 C -14.18728713,25.4167225 -14.18728713,25.4167225 -18.8984375,32.0625 C -20.69723942,35.22635018 -23.34562514,35.55431324 -26.69921875,36.51171875 C -30.00260548,37.21277705 -31.81190257,37.22097349 -35.0,36.0 C -37.83729454,33.83456027 -40.4419864,31.48659697 -43.0,29.0 C -42.34,28.67 -41.68,28.34 -41.0,28.0 C -41.0,26.35 -41.0,24.7 -41.0,23.0 C -39.87464844,22.70609375 -39.87464844,22.70609375 -38.7265625,22.40625 C -27.71123224,19.18766483 -20.91516132,13.43364539 -13.65234375,4.76953125 C -9.86031133,0.70856036 -5.57118386,-2.19915152 0.0,0.0" style="fill: #FFFFFF;" transform="translate(516,1052)"/>
	<path d="M 0.0,0.0 C -0.33,2.97 -0.66,5.94 -1.0,9.0 C -1.66,8.67 -2.32,8.34 -3.0,8.0 C -1.98181818,0.0 -1.98181818,0.0 0.0,0.0" style="fill: #FFFFFF;" transform="translate(946,1044)"/>
	<path d="M 0.0,0.0 C 3.53804813,2.17918717 6.25489191,4.82211431 9.1875,7.75 C 14.05993202,12.37727821 18.15156848,13.25588009 24.75,13.74609375 C 27.4375,14.0625 27.4375,14.0625 29.4375,16.0625 C 29.375,18.5 29.375,18.5 28.4375,21.0625 C 22.47001608,25.5142642 16.05298755,24.5233173 8.97265625,23.81640625 C 1.34653186,22.51634638 -4.37817519,18.18144425 -9.875,12.9375 C -14.3112715,8.94275315 -19.91902929,7.63785307 -25.5625,6.0625 C -23.82601221,1.95022046 -21.94963604,0.64218052 -17.96875,-1.16796875 C -11.82197644,-3.13373887 -5.77464519,-2.93833536 0.0,0.0" style="fill: #FFFFFF;" transform="translate(543.5625,1032.9375)"/>
	<path d="M 0.0,0.0 C 3.31662707,1.17091356 5.01394836,3.12679509 7.24609375,5.79296875 C 10.96853465,9.90724553 14.05900852,11.82545366 19.24609375,13.79296875 C 20.42171875,14.30859375 21.59734375,14.82421875 22.80859375,15.35546875 C 26.17541241,16.82899028 26.17541241,16.82899028 29.49609375,17.79296875 C 33.68714178,19.31698622 33.68714178,19.31698622 35.24609375,21.79296875 C 35.12109375,24.35546875 35.12109375,24.35546875 34.24609375,26.79296875 C 30.80824295,29.08486928 29.37446102,28.86484608 25.40869141,28.24267578 C 13.32633078,25.73017767 0.21332852,20.0820827 -6.94140625,9.66796875 C -8.7817004,6.31836861 -9.23506461,3.64223561 -8.75390625,-0.20703125 C -5.68262382,-1.74267247 -3.25179345,-0.77522756 0.0,0.0" style="fill: #FFFFFF;" transform="translate(721.75390625,1031.20703125)"/>
	<path d="M 0.0,0.0 C 4.58629579,1.86561184 6.73674583,3.95702746 8.6875,8.5 C 9.07081019,11.31585561 8.9383582,13.64021652 8.6875,16.5 C 5.6875,17.5 5.6875,17.5 2.8125,16.9375 C -0.71558727,16.44356778 -2.21316791,16.82468536 -5.3125,18.5 C -6.33118662,19.48095748 -7.33601983,20.47702078 -8.3125,21.5 C -8.9725,21.5 -9.6325,21.5 -10.3125,21.5 C -10.539375,22.139375 -10.76625,22.77875 -11.0,23.4375 C -12.79815826,27.63320261 -15.05154021,31.53900556 -17.3125,35.5 C -22.15625,34.6953125 -22.15625,34.6953125 -23.5625,32.9375 C -25.29442806,27.30873382 -26.19132243,22.70709358 -23.44140625,17.28125 C -18.94819701,10.19161881 -9.09126987,-1.37226715 0.0,0.0" style="fill: #FFFFFF;" transform="translate(501.3125,1026.5)"/>
	<path d="M 0.0,0.0 C 5.7724927,5.13662432 8.52950176,11.37255981 9.26953125,19.01953125 C 9.405542,23.92391893 8.93561942,27.03998982 6.14453125,31.14453125 C 3.26953125,33.01953125 3.26953125,33.01953125 -0.29296875,33.20703125 C -3.72406942,32.02174193 -5.10911186,31.18243892 -6.89453125,28.03125 C -8.28653977,24.68132296 -9.17035805,21.22469622 -10.01953125,17.703125 C -11.12909494,12.52321008 -11.12909494,12.52321008 -14.59375,8.91796875 C -15.29886719,8.62148437 -16.00398437,8.325 -16.73046875,8.01953125 C -18.16243918,6.94090417 -19.55824822,5.8129215 -20.91796875,4.64453125 C -21.61277344,4.05929687 -22.30757812,3.4740625 -23.0234375,2.87109375 C -24.8544811,0.885019 -25.34121067,-0.34280951 -25.73046875,-2.98046875 C -16.91696727,-8.8561364 -7.73283972,-5.83229539 0.0,0.0" style="fill: #FFFFFF;" transform="translate(227.73046875,1030.98046875)"/>
	<path d="M 0.0,0.0 C 2.125,1.625 2.125,1.625 3.0,4.0 C 2.39690209,10.88297458 -1.12257351,15.47809326 -5.0,21.0 C -5.46535156,21.66644531 -5.93070313,22.33289062 -6.41015625,23.01953125 C -12.4735972,30.85073924 -20.83851778,35.07358522 -30.25,37.5 C -31.24169189,37.75849731 -31.24169189,37.75849731 -32.25341797,38.0222168 C -39.34907108,39.64730439 -44.98481402,38.47330841 -51.26171875,35.109375 C -53.4848704,33.69055462 -54.84647355,32.38395466 -56.0,30.0 C -55.67,29.01 -55.34,28.02 -55.0,27.0 C -51.45312274,26.47115969 -47.92086654,25.99220527 -44.3515625,25.640625 C -35.82173339,24.74651293 -28.42131084,23.76059609 -22.37109375,17.24609375 C -20.80463058,15.22155258 -19.39761277,13.14448521 -18.0,11.0 C -16.75577234,9.18353261 -15.50566923,7.37107708 -14.25,5.5625 C -13.39148438,4.29599609 -13.39148438,4.29599609 -12.515625,3.00390625 C -9.40679823,-1.10647554 -4.76657878,-0.6186967 0.0,0.0" style="fill: #FFFFFF;" transform="translate(638,1024)"/>
	<path d="M 0.0,0.0 C 2.17803705,3.56406062 2.43775669,6.88508715 2.0,11.0 C 1.05078125,13.15625 1.05078125,13.15625 -1.0,15.0 C -4.0335972,15.53464643 -7.05171606,15.45655231 -10.125,15.4375 C -17.4902197,15.57549818 -23.08165461,16.18356876 -29.0,21.0 C -31.69389067,17.18365489 -32.66719976,14.67039834 -32.0,10.0 C -29.28425457,4.45535308 -25.38093552,1.69046776 -20.0,-1.0 C -13.90476625,-3.03174458 -5.72506183,-2.93234874 0.0,0.0" style="fill: #FFFFFF;" transform="translate(388,1026)"/>
	<path d="M 0.0,0.0 C 2.125,1.5 2.125,1.5 3.8125,3.625 C 4.18415602,7.04423542 3.69170715,7.64497033 1.75,10.375 C -1.71931447,14.58094974 -5.67851446,18.04357604 -9.875,21.5 C -10.42542969,21.99886719 -10.97585938,22.49773437 -11.54296875,23.01171875 C -14.56882885,25.72643643 -16.74385264,27.5 -20.875,27.5 C -24.95316333,26.36806884 -28.35039753,24.84973498 -31.875,22.5 C -31.875,21.84 -31.875,21.18 -31.875,20.5 C -30.9675,20.0875 -30.06,19.675 -29.125,19.25 C -26.06547606,17.60256403 -24.25614082,15.96618157 -21.875,13.5 C -21.215,13.5 -20.555,13.5 -19.875,13.5 C -19.47667969,12.62021484 -19.47667969,12.62021484 -19.0703125,11.72265625 C -16.3399926,6.64568885 -12.05618222,2.68860761 -6.75,0.4375 C -2.875,-0.5 -2.875,-0.5 0.0,0.0" style="fill: #FFFFFF;" transform="translate(434.875,1022.5)"/>
	<path d="M 0.0,0.0 C -0.33,1.65 -0.66,3.3 -1.0,5.0 C -4.37462715,4.45276317 -6.08235,3.9451 -9.0,2.0 C -9.0,1.34 -9.0,0.68 -9.0,0.0 C -3.375,-1.125 -3.375,-1.125 0.0,0.0" style="fill: #FFFFFF;" transform="translate(947,1019)"/>
	<path d="M 0.0,0.0 C 11.65789829,-0.86000889 20.33604597,0.29380033 29.58203125,8.2109375 C 31.78490626,10.15182875 31.78490626,10.15182875 34.09765625,10.2421875 C 34.74605469,10.12101562 35.39445313,9.99984375 36.0625,9.875 C 36.71347656,9.76929688 37.36445312,9.66359375 38.03515625,9.5546875 C 40.05624955,9.05881094 40.05624955,9.05881094 41.96484375,7.95703125 C 44.31754395,6.85067511 45.91437897,6.76379823 48.5,6.8125 C 49.62921875,6.82216797 49.62921875,6.82216797 50.78125,6.83203125 C 52.95990143,6.99696437 54.90204811,7.40399094 57.0,8.0 C 57.75,11.25 57.75,11.25 58.0,15.0 C 53.68003934,20.43544345 47.09311349,22.38263748 40.41015625,23.390625 C 28.65406003,23.91064189 18.71920584,16.77930799 9.0,11.0 C 8.09507812,10.47921875 7.19015625,9.9584375 6.2578125,9.421875 C 3.42441339,7.63751985 1.29356385,5.42462464 -1.0,3.0 C -0.67,2.01 -0.34,1.02 0.0,0.0" style="fill: #FFFFFF;" transform="translate(556,1018)"/>
	<path d="M 0.0,0.0 C 6.18636561,2.40811547 10.9666375,7.06036016 14.0,12.9375 C 14.0,16.37744232 12.53618387,18.98452796 11.0,22.0 C 7.70742173,23.64628913 5.6482757,23.53827018 2.0,23.0 C -0.03624914,21.14100397 -1.67118083,19.12967179 -3.390625,16.9765625 C -6.61892986,13.01170265 -9.70213186,11.90902912 -14.625,11.25 C -17.64811304,10.94046624 -19.04025803,11.01341934 -22.0,12.0 C -22.0,9.875 -22.0,9.875 -21.0,7.0 C -14.35074509,0.89145373 -9.02098088,-1.07276529 0.0,0.0" style="fill: #FFFFFF;" transform="translate(267,1018)"/>
	<path d="M 0.0,0.0 C 0.65134925,1.56020867 1.29582964,3.12328579 1.9375,4.6875 C 2.29714844,5.55761719 2.65679687,6.42773438 3.02734375,7.32421875 C 6.32848353,16.40566753 6.03614404,26.89156787 3.0,36.0 C 2.34,36.99 1.68,37.98 1.0,39.0 C -2.125,39.1875 -2.125,39.1875 -5.0,39.0 C -8.56991548,32.35824951 -9.62963365,26.87214635 -9.5,19.375 C -9.51546875,18.47265625 -9.5309375,17.5703125 -9.546875,16.640625 C -9.50991493,10.30197369 -8.03652563,0.0 0.0,0.0 M -4.0,8.0 C -5.21950118,11.65850355 -5.22253359,15.06403569 -5.25,18.875 C -5.270625,19.58269531 -5.29125,20.29039063 -5.3125,21.01953125 C -5.34600377,25.51741277 -4.85590374,28.46477935 -2.0,32.0 C -1.34,32.0 -0.68,32.0 0.0,32.0 C 2.40514497,27.18971005 1.51772032,20.83575938 0.10546875,15.828125 C -0.86362541,13.18451831 -1.88074283,10.58328551 -3.0,8.0 C -3.33,8.0 -3.66,8.0 -4.0,8.0" style="fill: #FFFFFF;" transform="translate(155,1018)"/>
	<path d="M 0.0,0.0 C 2.125,1.8125 2.125,1.8125 3.0625,4.3125 C 3.125,6.8125 3.125,6.8125 1.125,9.8125 C -0.86328125,10.2890625 -0.86328125,10.2890625 -3.1875,10.4375 C -4.75102202,10.54899053 -6.31359416,10.67450341 -7.875,10.8125 C -8.679375,10.85246094 -9.48375,10.89242188 -10.3125,10.93359375 C -14.15251574,12.25067232 -16.07693959,15.20072525 -18.5625,18.25 C -22.7863643,23.12283322 -25.94208639,26.38174287 -32.671875,26.95703125 C -35.66643036,26.76057992 -38.16706573,26.09520571 -40.875,24.8125 C -39.13231793,20.85185893 -36.72825271,17.06813451 -33.875,13.8125 C -33.215,13.8125 -32.555,13.8125 -31.875,13.8125 C -31.66875,13.255625 -31.4625,12.69875 -31.25,12.125 C -29.90653247,9.86553189 -28.82342298,8.8126344 -26.8125,7.1875 C -23.86675287,5.14130603 -23.86675287,5.14130603 -22.875,2.8125 C -15.47225696,-0.12713999 -7.68362089,-3.1736695 0.0,0.0" style="fill: #FFFFFF;" transform="translate(481.875,1017.1875)"/>
	<path d="M 0.0,0.0 C 4.50369376,0.1931499 4.50369376,0.1931499 8.92578125,-0.5 C 11.2410732,-1.05811181 13.30851472,-1.13286441 15.6875,-1.125 C 16.47511719,-1.12757813 17.26273437,-1.13015625 18.07421875,-1.1328125 C 20.0,-1.0 20.0,-1.0 21.0,0.0 C 20.9375,3.3125 20.9375,3.3125 20.0,7.0 C 12.93390817,12.96692199 4.82493708,12.59515932 -3.98193359,12.19677734 C -9.41511078,11.66699984 -15.10301856,9.89698144 -19.0,6.0 C -19.0625,4.0625 -19.0625,4.0625 -18.0,2.0 C -11.90545724,-1.41294395 -6.7665651,-1.69164127 0.0,0.0" style="fill: #FFFFFF;" transform="translate(332,1017)"/>
	<path d="M 0.0,0.0 C 0.66,0.66 1.32,1.32 2.0,2.0 C 1.87534848,6.36280319 -0.26561934,9.03896439 -2.84375,12.3515625 C -5.11592194,15.59094276 -5.08374699,18.37580241 -4.95703125,22.18359375 C -4.93576172,23.19357422 -4.91449219,24.20355469 -4.89257812,25.24414062 C -4.83928241,27.36946957 -4.77421568,29.49453661 -4.69726562,31.61914062 C -4.67116211,33.13604492 -4.67116211,33.13604492 -4.64453125,34.68359375 C -4.61721924,35.60712646 -4.58990723,36.53065918 -4.56176758,37.48217773 C -5.13491285,40.77512883 -6.44636466,41.92311442 -9.0,44.0 C -12.40410878,45.15686509 -15.79530468,45.22791533 -19.3125,44.5625 C -23.10625163,41.04976701 -23.83836689,36.63969979 -24.32421875,31.7109375 C -24.65598222,21.20890763 -22.37186596,12.95562797 -15.7734375,4.69921875 C -11.60272701,0.70305342 -5.67173327,-2.40618987 0.0,0.0" style="fill: #FFFFFF;" transform="translate(706,1016)"/>
	<path d="M 0.0,0.0 C 3.33855319,2.99318562 5.27398609,5.85756662 7.0,10.0 C 7.0,11.32 7.0,12.64 7.0,14.0 C 6.34,14.0 5.68,14.0 5.0,14.0 C 2.46690767,9.35796103 0.53484401,5.34844008 0.0,0.0" style="fill: #FFFFFF;" transform="translate(926,1008)"/>
	<path d="M 0.0,0.0 C 1.44575907,1.05123414 2.88409915,2.11279841 4.3125,3.1875 C 5.3025,3.8475 6.2925,4.5075 7.3125,5.1875 C 9.8688635,7.7438635 10.07088356,9.64379222 10.3125,13.1875 C 8.625,14.75 8.625,14.75 6.3125,16.1875 C 2.26804558,15.80812069 -0.31659875,14.29861468 -3.6875,12.125 C -9.25771645,8.94524081 -13.36296585,8.90812876 -19.65234375,9.23046875 C -24.295556,9.16473473 -26.86590991,7.7597241 -30.6875,5.1875 C -31.0175,4.1975 -31.3475,3.2075 -31.6875,2.1875 C -21.29803755,-2.77110708 -10.32158805,-6.68866068 0.0,0.0" style="fill: #FFFFFF;" transform="translate(530.6875,1007.8125)"/>
	<path d="M 0.0,0.0 C 5.5244053,2.82186903 7.4193177,5.98306101 9.875,11.375 C 12.63827155,17.06983665 15.02025132,20.34392043 20.4921875,23.734375 C 22.0,25.0 22.0,25.0 22.625,28.75 C 22.0,32.0 22.0,32.0 20.0,34.0 C 17.72265625,34.08203125 17.72265625,34.08203125 15.0625,33.8125 C 14.18722656,33.73644531 13.31195313,33.66039062 12.41015625,33.58203125 C 9.66365656,32.91877606 8.81804404,32.09447179 7.0,30.0 C 6.195625,29.525625 5.39125,29.05125 4.5625,28.5625 C -0.34475489,25.57027141 -2.53034192,22.27792177 -4.8125,17.0625 C -7.45704578,11.50963023 -9.79244411,9.12453353 -15.0,6.0 C -15.0,4.0 -15.0,4.0 -13.125,1.875 C -8.83582323,-0.69850606 -4.89283074,-1.00063907 0.0,0.0" style="fill: #FFFFFF;" transform="translate(283,1001)"/>
	<path d="M 0.0,0.0 C 1.02222656,0.08507812 2.04445313,0.17015625 3.09765625,0.2578125 C 6.16336088,0.92408668 7.71760324,1.67609517 9.9375,3.875 C 10.3125,6.9375 10.3125,6.9375 9.9375,9.875 C 7.9375,11.875 7.9375,11.875 4.6875,12.5625 C -1.17515727,14.61443004 -3.65119302,18.2159607 -6.51171875,23.60546875 C -8.58397786,28.0053083 -10.25435403,32.06088313 -11.0625,36.875 C -11.7225,36.875 -12.3825,36.875 -13.0625,36.875 C -13.0625,37.535 -13.0625,38.195 -13.0625,38.875 C -16.25,39.6875 -16.25,39.6875 -20.0625,39.875 C -23.27142486,37.37916956 -25.76521917,34.76684249 -27.0625,30.875 C -27.75649182,22.49923666 -23.00003635,15.38302893 -17.76953125,9.13671875 C -8.06509358,-0.79529368 -8.06509358,-0.79529368 0.0,0.0" style="fill: #FFFFFF;" transform="translate(681.0625,999.125)"/>
	<path d="M 0.0,0.0 C 6.88404399,1.51448968 11.04988405,4.13218243 15.125,10.125 C 16.76142869,13.18324378 17.79570949,16.33404862 18.875,19.625 C 20.6490876,24.79823944 22.58743873,26.89115002 27.0,30.0 C 27.0,30.66 27.0,31.32 27.0,32.0 C 28.485,32.495 28.485,32.495 30.0,33.0 C 31.50662097,36.01324195 31.17770373,38.68286377 31.0,42.0 C 29.0,44.0 29.0,44.0 26.70703125,44.36328125 C 23.13268816,43.8836075 21.45688485,42.46454977 18.6875,40.1875 C 17.80449219,39.47980469 16.92148438,38.77210937 16.01171875,38.04296875 C 14.0,36.0 14.0,36.0 14.0,33.0 C 13.34,33.0 12.68,33.0 12.0,33.0 C 11.54109375,31.9378125 11.0821875,30.875625 10.609375,29.78125 C 9.99007987,28.35395112 9.37025388,26.9268825 8.75,25.5 C 8.4300708,24.76330078 8.1101416,24.02660156 7.78051758,23.26757812 C 6.18435896,19.61690589 4.55505964,16.02208967 2.6875,12.5 C 0.81467547,8.6156232 -0.18477222,5.22436212 -1.0,1.0 C -0.67,0.67 -0.34,0.34 0.0,0.0" style="fill: #FFFFFF;" transform="translate(167,999)"/>
	<path d="M 0.0,0.0 C 1.8871875,0.0309375 1.8871875,0.0309375 3.8125,0.0625 C 3.8125,0.7225 3.8125,1.3825 3.8125,2.0625 C 10.41201855,4.91330893 10.41201855,4.91330893 17.25,3.75 C 18.03761719,3.46898437 18.82523437,3.18796875 19.63671875,2.8984375 C 21.29369539,2.26182529 22.93288199,1.57869869 24.5625,0.875 C 27.15532677,-0.06129856 29.07624859,-0.23331096 31.8125,0.0625 C 32.4725,0.7225 33.1325,1.3825 33.8125,2.0625 C 33.73391208,5.67754435 33.3317522,7.49299759 30.875,10.1875 C 21.75561888,15.77079456 11.13204124,18.83231866 0.48046875,16.56640625 C -4.8635856,14.95499633 -8.81497567,12.50470001 -13.1875,9.0625 C -12.3915503,4.84396659 -10.72316621,3.50379333 -7.1875,1.0625 C -4.43671116,0.14557039 -2.82801087,-0.04636083 0.0,0.0" style="fill: #FFFFFF;" transform="translate(324.1875,990.9375)"/>
	<path d="M 0.0,0.0 C 2.00324677,3.47229441 2.9613305,6.05259737 3.125,10.0625 C 1.4923303,14.32558199 -1.40823414,16.32333372 -5.0,19.0 C -7.80644459,21.15378306 -9.97893513,22.97351845 -12.1875,25.75 C -12.785625,26.4925 -13.38375,27.235 -14.0,28.0 C -14.66,28.0 -15.32,28.0 -16.0,28.0 C -16.309375,28.8971875 -16.309375,28.8971875 -16.625,29.8125 C -18.65323823,33.03924264 -20.39044054,33.77532804 -24.0,35.0 C -29.09146545,35.28512206 -32.80041072,34.89331116 -36.9375,31.8125 C -39.05494029,28.92508142 -40.7177932,26.34798443 -42.0,23.0 C -41.5703125,20.81640625 -41.5703125,20.81640625 -41.0,19.0 C -39.88625,18.773125 -38.7725,18.54625 -37.625,18.3125 C -26.4319733,15.43541919 -18.77019722,8.91575174 -10.83203125,0.77734375 C -7.25752799,-2.69045792 -4.19255038,-2.580031 0.0,0.0" style="fill: #FFFFFF;" transform="translate(631,987)"/>
	<path d="M 0.0,0.0 C 1.625,1.875 1.625,1.875 2.125,4.875 C 1.625,7.875 1.625,7.875 -0.0859375,9.484375 C -2.59918915,11.01119682 -4.62776657,11.53882991 -7.5,12.125 C -15.12558335,14.05939364 -20.79016822,18.41296117 -26.4375,23.75 C -30.15401707,26.43854426 -33.77518893,27.43573887 -38.375,26.875 C -40.14453125,25.375 -40.14453125,25.375 -41.375,23.875 C -35.98806521,10.75898486 -24.75178379,5.2991424 -12.375,-0.125 C -8.05372027,-1.36090984 -4.18343767,-1.98162837 0.0,0.0" style="fill: #FFFFFF;" transform="translate(481.375,985.125)"/>
	<path d="M 0.0,0.0 C 0.66,0.0 1.32,0.0 2.0,0.0 C 2.44730469,1.02480469 2.89460937,2.04960938 3.35546875,3.10546875 C 3.96554771,4.46641412 4.5762585,5.82707637 5.1875,7.1875 C 5.47947266,7.86103516 5.77144531,8.53457031 6.07226562,9.22851562 C 8.10105958,13.70058833 10.36427343,16.60898579 14.0,20.0 C 15.58203125,22.16796875 15.58203125,22.16796875 16.8125,24.1875 C 17.23144531,24.86167969 17.65039062,25.53585937 18.08203125,26.23046875 C 19.0,28.0 19.0,28.0 19.0,30.0 C 19.66,30.0 20.32,30.0 21.0,30.0 C 21.0,39.57 21.0,49.14 21.0,59.0 C 10.0,56.0 10.0,56.0 8.0,54.0 C 7.3720652,49.39242649 7.52122392,45.1969402 9.25,40.875 C 9.8275,40.25625 10.405,39.6375 11.0,39.0 C 12.32,39.0 13.64,39.0 15.0,39.0 C 14.75026872,33.25618058 12.8751024,29.89508262 9.83203125,25.08984375 C 7.53761055,21.22014914 5.56427383,17.24435179 3.625,13.1875 C 3.26720459,12.45805176 2.90940918,11.72860352 2.54077148,10.97705078 C 0.75013385,7.18454749 -0.48960109,4.29667163 0.0,0.0" style="fill: #FFFFFF;" transform="translate(939,982)"/>
	<path d="M 0.0,0.0 C 2.1794446,3.2691669 2.50084826,4.20948934 2.0,8.0 C 0.53125,10.2890625 0.53125,10.2890625 -1.5,12.625 C -5.28897472,17.10470817 -8.70380128,21.73222668 -12.04296875,26.5546875 C -17.16519068,32.95490891 -24.07569666,36.24767588 -32.09375,37.47265625 C -34.73103822,37.71395453 -37.35390775,37.89938813 -40.0,38.0 C -40.0,32.60136012 -37.92064793,30.96951122 -34.37109375,27.12890625 C -30.7148198,23.84609026 -26.05485134,21.0 -21.0,21.0 C -20.67,19.68 -20.34,18.36 -20.0,17.0 C -19.34,17.0 -18.68,17.0 -18.0,17.0 C -17.59394531,16.13375 -17.59394531,16.13375 -17.1796875,15.25 C -13.61404948,8.44931292 -8.30635662,0.0 0.0,0.0" style="fill: #FFFFFF;" transform="translate(428,982)"/>
	<path d="M 0.0,0.0 C 1.08984375,1.47265625 1.08984375,1.47265625 1.08984375,4.53515625 C 0.08984375,7.47265625 0.08984375,7.47265625 -1.91015625,9.03515625 C -8.93795463,10.06004351 -15.61525808,5.76463113 -21.6484375,2.55859375 C -26.74408501,0.11197888 -29.51892387,0.61023052 -34.91015625,2.47265625 C -35.90015625,3.13265625 -36.89015625,3.79265625 -37.91015625,4.47265625 C -40.43359375,4.73828125 -40.43359375,4.73828125 -43.28515625,4.72265625 C -44.22101563,4.7278125 -45.156875,4.73296875 -46.12109375,4.73828125 C -49.05345387,4.45900886 -51.2442055,3.69414641 -53.91015625,2.47265625 C -50.67810931,-2.29211398 -47.20058403,-4.34144928 -42.16015625,-6.77734375 C -41.48210937,-7.12796875 -40.8040625,-7.47859375 -40.10546875,-7.83984375 C -26.59237434,-14.51932007 -11.37438186,-9.09485339 0.0,0.0" style="fill: #FFFFFF;" transform="translate(550.91015625,991.52734375)"/>
	<path d="M 0.0,0.0 C 2.37078839,2.37078839 2.25629223,3.02120701 2.4375,6.25 C 2.94465133,11.60517419 4.3164694,15.26695379 8.125,19.1875 C 11.33427999,21.21074174 14.39603975,22.29897667 18.01171875,23.38671875 C 20.0,24.0 20.0,24.0 22.0,25.0 C 22.25,27.3125 22.25,27.3125 22.0,30.0 C 19.38784532,33.04751379 16.20738005,33.70748764 12.28125,34.06640625 C 5.62761872,33.87272178 -0.98208613,31.31773984 -6.0,27.0 C -10.7081472,20.79496904 -12.42054327,15.85014102 -12.0,8.0 C -11.0,5.5625 -11.0,5.5625 -10.0,4.0 C -9.34,4.0 -8.68,4.0 -8.0,4.0 C -7.67,3.01 -7.34,2.02 -7.0,1.0 C -4.48718205,-0.25640898 -2.78302919,-0.20872719 0.0,0.0" style="fill: #FFFFFF;" transform="translate(234,977)"/>
	<path d="M 0.0,0.0 C 1.72265625,1.6953125 1.72265625,1.6953125 2.16015625,4.1953125 C 1.63817005,7.17809081 1.04241599,7.8181385 -1.27734375,9.6953125 C -3.6171875,10.57421875 -3.6171875,10.57421875 -6.21484375,11.2578125 C -12.27414509,12.87545404 -15.20183903,14.10526168 -18.65234375,19.5078125 C -22.27577661,24.89630815 -25.87701272,28.09509181 -31.27734375,31.6953125 C -35.94245072,32.20238934 -38.46440941,31.38679556 -42.27734375,28.6953125 C -41.18092201,26.0040955 -40.05065587,24.46977337 -37.96484375,22.39453125 C -35.37489877,19.79329291 -33.19865756,17.10294583 -30.96484375,14.1953125 C -27.16009548,9.49309869 -23.65168069,6.39974329 -18.27734375,3.6953125 C -17.32859375,3.1384375 -16.37984375,2.5815625 -15.40234375,2.0078125 C -4.49307812,-2.57407906 -4.49307812,-2.57407906 0.0,0.0" style="fill: #FFFFFF;" transform="translate(409.27734375,976.3046875)"/>
	<path d="M 0.0,0.0 C 5.16537446,2.83433368 8.91458698,4.034856 14.8046875,3.55859375 C 21.54543099,3.56936171 28.46597126,6.94343777 33.25,11.5625 C 32.96897086,14.93484971 32.44628348,16.34889739 30.125,18.875 C 26.49065806,21.00820071 24.401996,21.16642669 20.25,20.5625 C 19.68539062,19.91152344 19.12078125,19.26054688 18.5390625,18.58984375 C 15.35752733,15.77206772 12.25126823,15.85981732 8.1875,15.625 C 0.74165997,15.00125636 -5.18128909,13.27956752 -11.75,9.5625 C -11.75,8.5725 -11.75,7.5825 -11.75,6.5625 C -12.389375,6.315 -13.02875,6.0675 -13.6875,5.8125 C -15.75,4.5625 -15.75,4.5625 -16.5,2.4375 C -16.5825,1.81875 -16.665,1.2 -16.75,0.5625 C -10.87858945,-4.6314401 -6.46191895,-3.74995975 0.0,0.0" style="fill: #FFFFFF;" transform="translate(261.75,978.4375)"/>
	<path d="M 0.0,0.0 C 2.4375,1.6875 2.4375,1.6875 4.0,4.0 C 3.89453125,6.453125 3.89453125,6.453125 3.0,9.0 C 0.890625,10.66015625 0.890625,10.66015625 -1.75,12.0625 C -2.6575,12.57167969 -3.565,13.08085938 -4.5,13.60546875 C -5.325,14.06566406 -6.15,14.52585937 -7.0,15.0 C -11.10917918,17.80171308 -13.6394875,21.06069045 -16.5234375,25.0390625 C -18.46509736,27.61766898 -20.6282073,29.81545409 -23.0,32.0 C -23.639375,32.598125 -24.27875,33.19625 -24.9375,33.8125 C -27.80918956,35.46589702 -29.73876422,35.40765447 -33.0,35.0 C -35.375,33.5 -35.375,33.5 -37.0,32.0 C -33.06039583,19.39326666 -19.82788081,6.62412804 -8.375,0.625 C -5.37849985,-0.16355267 -3.08488796,-0.39381548 0.0,0.0" style="fill: #FFFFFF;" transform="translate(676,973)"/>
	<path d="M 0.0,0.0 C 0.33,0.66 0.66,1.32 1.0,2.0 C 2.794375,2.6496875 2.794375,2.6496875 4.625,3.3125 C 10.11784037,5.88634441 11.91897379,10.64927588 14.45703125,15.90625 C 15.8465918,18.94493732 15.8465918,18.94493732 17.64453125,21.12109375 C 19.23964192,23.33218375 19.57422086,24.86915951 19.875,27.5625 C 20.02582031,28.70912109 20.02582031,28.70912109 20.1796875,29.87890625 C 20.0,32.0 20.0,32.0 18.71484375,33.75 C 15.82222588,35.85851416 13.46052424,35.41057067 10.0,35.0 C 2.0494889,30.73968701 -0.93526683,22.7030295 -3.88671875,14.55078125 C -5.04440806,10.37160495 -5.34496759,6.31209492 -5.0,2.0 C -3.0,0.0 -3.0,0.0 0.0,0.0" style="fill: #FFFFFF;" transform="translate(178,965)"/>
	<path d="M 0.0,0.0 C 0.66,0.0 1.32,0.0 2.0,0.0 C 2.33,0.99 2.66,1.98 3.0,3.0 C 3.68964844,3.08636719 4.37929688,3.17273438 5.08984375,3.26171875 C 13.25572733,4.48268077 19.89371708,6.59066509 25.5625,12.8125 C 26.036875,13.534375 26.51125,14.25625 27.0,15.0 C 25.25,19.875 25.25,19.875 23.0,21.0 C 17.10216517,21.82240725 12.58065945,21.04779393 7.1875,18.5625 C 1.660281,16.01585341 -2.96853438,15.54460818 -8.99609375,15.3125 C -13.37608773,14.85684393 -16.26655202,13.26935073 -20.0,11.0 C -19.0,8.0 -19.0,8.0 -17.36328125,7.12109375 C -16.68652344,6.89550781 -16.00976562,6.66992188 -15.3125,6.4375 C -14.59191406,6.19257812 -13.87132812,5.94765625 -13.12890625,5.6953125 C -12.07509766,5.35113281 -12.07509766,5.35113281 -11.0,5.0 C -9.9275,4.608125 -8.855,4.21625 -7.75,3.8125 C -5.0,3.0 -5.0,3.0 -1.0,3.0 C -0.67,2.01 -0.34,1.02 0.0,0.0" style="fill: #FFFFFF;" transform="translate(307,963)"/>
	<path d="M 0.0,0.0 C 1.0625,1.8125 1.0625,1.8125 2.0,4.0 C 1.67,4.99 1.34,5.98 1.0,7.0 C 0.01,7.33 -0.98,7.66 -2.0,8.0 C -2.6875,6.25 -2.6875,6.25 -3.0,4.0 C -1.5625,1.75 -1.5625,1.75 0.0,0.0" style="fill: #FFFFFF;" transform="translate(222,963)"/>
	<path d="M 0.0,0.0 C 5.48209652,0.05838919 9.5815131,0.74533307 14.4375,3.25 C 15.08074219,3.55550781 15.72398437,3.86101563 16.38671875,4.17578125 C 24.42833005,8.52046319 29.36616346,16.38895077 34.625,23.625 C 37.18951926,27.11619429 39.99677559,29.62849569 43.4375,32.25 C 42.96443208,36.7441452 42.96443208,36.7441452 40.875,38.75 C 36.91198797,39.56292555 33.87878532,38.07969748 30.4375,36.25 C 22.72465045,31.1338098 17.2791437,25.14008603 12.4375,17.25 C 12.4375,16.59 12.4375,15.93 12.4375,15.25 C 11.8909375,14.98832031 11.344375,14.72664062 10.78125,14.45703125 C 8.08306408,13.0674655 5.5176533,11.53591915 2.9375,9.9375 C 1.9990625,9.36386719 1.060625,8.79023437 0.09375,8.19921875 C -2.6890022,6.15716971 -4.53561682,4.0274036 -6.5625,1.25 C -4.80249081,-0.51000919 -2.38755906,0.03585821 0.0,0.0" style="fill: #FFFFFF;" transform="translate(552.5625,959.75)"/>
	<path d="M 0.0,0.0 C 0.82757813,0.08765625 1.65515625,0.1753125 2.5078125,0.265625 C 4.97265197,0.76998159 6.76043946,1.38728321 8.875,2.75 C 9.875,5.625 9.875,5.625 9.875,8.75 C 7.59681423,11.94062242 6.30981222,12.67704164 2.40625,13.33203125 C 1.06305129,13.41795585 -0.28078406,13.49431398 -1.625,13.5625 C -7.46058463,14.03663712 -11.33188643,15.05680752 -16.3125,18.375 C -22.48657363,22.45717214 -27.88207683,22.70130931 -35.125,21.75 C -35.785,21.42 -36.445,21.09 -37.125,20.75 C -33.83409311,12.19364208 -21.6800017,6.69601322 -13.9140625,2.94140625 C -9.10233728,0.88597741 -5.27165828,-0.62797183 0.0,0.0" style="fill: #FFFFFF;" transform="translate(383.125,960.25)"/>
	<path d="M 0.0,0.0 C 7.56852855,6.42713466 7.56852855,6.42713466 8.11328125,10.78515625 C 7.80078125,13.28515625 7.80078125,13.28515625 6.5546875,14.94921875 C 4.27769243,16.68358916 3.22707056,16.53302411 0.42578125,16.16015625 C -4.11651283,15.46415958 -7.53385299,14.33747464 -10.52734375,10.6484375 C -12.3712892,8.57632708 -13.6362638,7.40004165 -16.19921875,6.28515625 C -19.44954699,6.64752393 -22.40723129,7.2952261 -25.56103516,8.11254883 C -31.26660403,9.5257831 -35.08870145,9.1051489 -40.19921875,6.28515625 C -41.18921875,5.62515625 -42.17921875,4.96515625 -43.19921875,4.28515625 C -43.19921875,3.29515625 -43.19921875,2.30515625 -43.19921875,1.28515625 C -28.48674231,-5.94601455 -14.2431603,-11.10612322 0.0,0.0" style="fill: #FFFFFF;" transform="translate(536.19921875,965.71484375)"/>
	<path d="M 0.0,0.0 C 0.63679688,0.31710937 1.27359375,0.63421875 1.9296875,0.9609375 C 3.67040258,1.83129504 5.39831763,2.72712517 7.125,3.625 C 7.91390625,3.95757813 8.7028125,4.29015625 9.515625,4.6328125 C 11.125,5.625 11.125,5.625 12.0,9.125 C 12.04125,10.28 12.0825,11.435 12.125,12.625 C 10.125,14.625 10.125,14.625 7.0,14.94140625 C 1.83780815,14.51989663 -2.2129651,12.72777773 -6.9140625,10.66992188 C -13.19931709,8.09151145 -17.91687795,9.01723846 -24.375,10.8125 C -28.74453997,11.80253205 -31.69215402,11.42936493 -35.875,9.625 C -38.3125,7.5 -38.3125,7.5 -39.875,5.625 C -39.545,4.635 -39.215,3.645 -38.875,2.625 C -35.72278229,1.13248971 -32.29492767,0.36187675 -28.9375,-0.5625 C -27.56754883,-0.97145508 -27.56754883,-0.97145508 -26.16992188,-1.38867188 C -16.63456153,-4.08124709 -8.88973637,-4.70633102 0.0,0.0" style="fill: #FFFFFF;" transform="translate(462.875,961.375)"/>
	<path d="M 0.0,0.0 C 6.53904482,5.65280065 9.76961867,12.57408498 11.0,21.0 C 11.16969297,23.39426169 11.31470174,25.79037562 11.4375,28.1875 C 11.75296889,33.82882609 12.36885447,38.50884632 16.0,43.0 C 17.65661761,44.01656081 19.32111559,45.02065076 21.0,46.0 C 21.5,48.5625 21.5,48.5625 21.0,51.0 C 17.22786948,53.51475368 15.47964158,53.44796416 11.0,53.0 C 6.20549703,51.14826086 2.68649111,48.41352111 0.0,44.0 C -2.15618702,38.74973296 -3.11451934,33.71466159 -3.4375,28.0625 C -4.09233441,18.26516975 -7.15283788,11.00277944 -14.0,4.0 C -5.71583514,-1.01409978 -5.71583514,-1.01409978 0.0,0.0" style="fill: #FFFFFF;" transform="translate(203,957)"/>
	<path d="M 0.0,0.0 C 0.99,0.0 1.98,0.0 3.0,0.0 C 3.0,0.66 3.0,1.32 3.0,2.0 C 4.65,2.0 6.3,2.0 8.0,2.0 C 7.01,3.485 7.01,3.485 6.0,5.0 C 5.36707617,7.11280345 5.36707617,7.11280345 5.0,9.0 C 4.67,8.34 4.34,7.68 4.0,7.0 C 2.35636866,6.27840576 0.68949614,5.60648579 -1.0,5.0 C -1.0,5.99 -1.0,6.98 -1.0,8.0 C -5.875,7.125 -5.875,7.125 -7.0,6.0 C -7.04063832,4.33382885 -7.042721,2.66611905 -7.0,1.0 C -4.69,1.66 -2.38,2.32 0.0,3.0 C 0.0,2.01 0.0,1.02 0.0,0.0" style="fill: #FFFFFF;" transform="translate(583,944)"/>
	<path d="M 0.0,0.0 C 2.38564077,0.57584432 4.66682784,1.22227595 7.0,2.0 C 6.75,3.875 6.75,3.875 6.0,6.0 C 3.9375,7.25 3.9375,7.25 2.0,8.0 C 0.23537317,4.91190305 0.0,3.76687864 0.0,0.0" style="fill: #FFFFFF;" transform="translate(568,944)"/>
	<path d="M 0.0,0.0 C 0.99,0.33 1.98,0.66 3.0,1.0 C 3.0,1.66 3.0,2.32 3.0,3.0 C 3.99,3.33 4.98,3.66 6.0,4.0 C 5.360625,4.103125 4.72125,4.20625 4.0625,4.3125 C 3.381875,4.539375 2.70125,4.76625 2.0,5.0 C 1.67,5.99 1.34,6.98 1.0,8.0 C 1.0,7.01 1.0,6.02 1.0,5.0 C 0.34,5.0 -0.32,5.0 -1.0,5.0 C -0.67,6.32 -0.34,7.64 0.0,9.0 C -2.3125,8.8125 -2.3125,8.8125 -5.0,8.0 C -6.875,5.5625 -6.875,5.5625 -8.0,3.0 C -7.67,2.34 -7.34,1.68 -7.0,1.0 C -4.61435923,1.57584432 -2.33317216,2.22227595 0.0,3.0 C 0.0,2.01 0.0,1.02 0.0,0.0" style="fill: #FFFFFF;" transform="translate(554,943)"/>
	<path d="M 0.0,0.0 C 0.0,0.66 0.0,1.32 0.0,2.0 C 0.99,2.0 1.98,2.0 3.0,2.0 C 3.0,2.66 3.0,3.32 3.0,4.0 C 2.34,4.0 1.68,4.0 1.0,4.0 C 1.0,4.66 1.0,5.32 1.0,6.0 C 0.01,6.0 -0.98,6.0 -2.0,6.0 C -2.38218767,4.34385343 -2.71395102,2.67542976 -3.0,1.0 C -2.0,0.0 -2.0,0.0 0.0,0.0" style="fill: #FFFFFF;" transform="translate(541,943)"/>
	<path d="M 0.0,0.0 C 0.99,0.33 1.98,0.66 3.0,1.0 C 1.84826645,3.46800047 0.95216435,5.04783565 -1.0,7.0 C -1.625,4.625 -1.625,4.625 -2.0,2.0 C -1.34,1.34 -0.68,0.68 0.0,0.0" style="fill: #FFFFFF;" transform="translate(238,941)"/>
	<path d="M 0.0,0.0 C 1.48958928,6.21463056 0.46794488,9.2486546 -2.625,14.5 C -2.9960083,15.15782471 -3.3670166,15.81564941 -3.74926758,16.4934082 C -9.63701407,26.79920691 -15.7131061,33.55115131 -27.0,38.0 C -34.46295749,40.01326295 -40.27400147,38.63439921 -47.0,35.0 C -48.35465873,34.02908419 -49.69507134,33.03679263 -51.0,32.0 C -50.67,31.01 -50.34,30.02 -50.0,29.0 C -48.62328125,28.99613281 -48.62328125,28.99613281 -47.21875,28.9921875 C -37.68388679,28.71514224 -37.68388679,28.71514224 -29.734375,23.9921875 C -24.8738376,18.40913779 -21.50336857,12.24087477 -18.6875,5.4375 C -17.29035555,2.52292715 -16.62294653,1.29574229 -13.6796875,-0.1015625 C -8.96755868,-1.15651671 -4.70827671,-1.23902019 0.0,0.0" style="fill: #FFFFFF;" transform="translate(647,938)"/>
	<path d="M 0.0,0.0 C 0.928125,0.66 1.85625,1.32 2.8125,2.0 C 2.8125,2.99 2.8125,3.98 2.8125,5.0 C 1.636875,4.95875 0.46125,4.9175 -0.75,4.875 C -4.86625457,4.86780375 -8.22549627,5.8584057 -12.1875,7.0 C -19.37225802,8.19199182 -25.17720098,7.95368989 -32.1875,6.0 C -25.50469097,-2.13870672 -9.1576133,-5.10994822 0.0,0.0" style="fill: #FFFFFF;" transform="translate(497.1875,930)"/>
	<path d="M 0.0,0.0 C 3.30063098,0.91684194 4.93474769,1.93122054 7.3125,4.4375 C 12.659085,15.724735 6.69608263,29.97211217 2.953125,41.1171875 C 1.58245831,44.54385422 0.38498501,46.63582499 -2.3125,49.1875 C -7.45314353,50.74164804 -12.25263079,48.01403542 -17.0,46.0 C -17.51611516,41.87107868 -16.98584996,39.67727245 -14.64453125,36.37109375 C -11.77987761,31.95401213 -10.542643,27.65654814 -9.375,22.5625 C -4.88947373,3.87785848 -4.88947373,3.87785848 0.0,0.0" style="fill: #FFFFFF;" transform="translate(663,920)"/>
	<path d="M 0.0,0.0 C 1.98,0.99 1.98,0.99 4.0,2.0 C 3.34,3.32 2.68,4.64 2.0,6.0 C 1.34,6.0 0.68,6.0 0.0,6.0 C 0.0,4.02 0.0,2.04 0.0,0.0" style="fill: #FFFFFF;" transform="translate(234,920)"/>
	<path d="M 0.0,0.0 C 4.70226335,4.0536753 6.73794025,8.4667557 7.375,14.625 C 6.96255765,18.33698113 6.47235835,20.19799387 4.0,23.0 C 1.0,24.0 1.0,24.0 -2.0,24.0 C -3.9375,22.875 -3.9375,22.875 -5.0,21.0 C -4.73897585,17.51967799 -3.96602468,15.94903702 -2.0,13.0 C -1.83308357,10.32051847 -1.83308357,10.32051847 -2.0,7.4375 C -2.125,4.49609375 -2.125,4.49609375 -2.0,2.0 C -1.34,1.34 -0.68,0.68 0.0,0.0 M 2.0,11.0 C 0.68,14.3 -0.64,17.6 -2.0,21.0 C -1.01,21.33 -0.02,21.66 1.0,22.0 C 2.64570159,20.94369738 2.64570159,20.94369738 4.0,19.0 C 4.2503577,15.37464024 4.2503577,15.37464024 4.0,12.0 C 3.34,11.67 2.68,11.34 2.0,11.0" style="fill: #FFFFFF;" transform="translate(574,912)"/>
	<path d="M 0.0,0.0 C 0.99,0.33 1.98,0.66 3.0,1.0 C 2.67,1.99 2.34,2.98 2.0,4.0 C 1.34,4.0 0.68,4.0 0.0,4.0 C 0.0,4.66 0.0,5.32 0.0,6.0 C -0.99,5.67 -1.98,5.34 -3.0,5.0 C -2.01,3.35 -1.02,1.7 0.0,0.0" style="fill: #FFFFFF;" transform="translate(235,912)"/>
	<path d="M 0.0,0.0 C 0.99,0.33 1.98,0.66 3.0,1.0 C 3.33,4.96 3.66,8.92 4.0,13.0 C 3.01,13.0 2.02,13.0 1.0,13.0 C -0.32229189,10.35541621 -0.09677194,8.32238699 -0.0625,5.375 C -0.05347656,4.37210938 -0.04445313,3.36921875 -0.03515625,2.3359375 C -0.02355469,1.56507813 -0.01195312,0.79421875 0.0,0.0" style="fill: #FFFFFF;" transform="translate(592,911)"/>
	<path d="M 0.0,0.0 C 10.03607934,0.78555007 17.51694783,2.24364317 26.0,8.0 C 26.59296875,8.38027344 27.1859375,8.76054688 27.796875,9.15234375 C 33.71126643,13.43570456 37.39916998,19.76930743 38.71484375,26.84375 C 39.05523082,29.45865663 39.27773438,32.04684381 39.48046875,34.6796875 C 40.01731112,38.11063499 40.50672634,39.62269255 43.0,42.0 C 46.60465748,42.81314911 46.60465748,42.81314911 50.0,43.0 C 50.0,42.01 50.0,41.02 50.0,40.0 C 50.99,39.67 51.98,39.34 53.0,39.0 C 53.0,39.66 53.0,40.32 53.0,41.0 C 54.093125,40.649375 55.18625,40.29875 56.3125,39.9375 C 60.0,39.0 60.0,39.0 63.0,40.0 C 63.495,39.01 63.495,39.01 64.0,38.0 C 73.40789474,40.99342105 73.40789474,40.99342105 75.25,44.125 C 75.4975,44.74375 75.745,45.3625 76.0,46.0 C 74.35,46.66 72.7,47.32 71.0,48.0 C 71.0,47.34 71.0,46.68 71.0,46.0 C 64.96885389,45.63447599 59.5830047,46.96695587 55.0,51.0 C 54.15501953,50.47599609 54.15501953,50.47599609 53.29296875,49.94140625 C 50.45288147,48.77537382 49.24065425,49.1406271 46.3125,49.9375 C 42.66304543,50.79872822 39.88960599,51.03181802 36.1875,50.4375 C 32.09169682,49.79685592 30.47089011,50.68607326 27.0,53.0 C 24.375,52.6875 24.375,52.6875 22.0,52.0 C 21.01,52.0 20.02,52.0 19.0,52.0 C 18.34,50.68 17.68,49.36 17.0,48.0 C 15.7315625,48.495 15.7315625,48.495 14.4375,49.0 C 10.79299008,50.06022107 7.769616,50.0 4.0,50.0 C 3.34,50.66 2.68,51.32 2.0,52.0 C -0.15634036,52.0 -1.92446352,51.5534764 -4.0,51.0 C -4.33,51.66 -4.66,52.32 -5.0,53.0 C -5.66,53.0 -6.32,53.0 -7.0,53.0 C -7.33,55.31 -7.66,57.62 -8.0,60.0 C -9.98,59.34 -11.96,58.68 -14.0,58.0 C -14.0,57.34 -14.0,56.68 -14.0,56.0 C -14.99,56.0 -15.98,56.0 -17.0,56.0 C -16.67,54.68 -16.34,53.36 -16.0,52.0 C -16.66,52.0 -17.32,52.0 -18.0,52.0 C -18.08066508,48.45073659 -17.94247192,45.41646071 -17.0,42.0 C -17.0,41.01 -17.0,40.02 -17.0,39.0 C -15.68,39.33 -14.36,39.66 -13.0,40.0 C -12.67,41.65 -12.34,43.3 -12.0,45.0 C -11.39671875,44.98839844 -10.7934375,44.97679687 -10.171875,44.96484375 C -8.97304687,44.95130859 -8.97304687,44.95130859 -7.75,44.9375 C -6.96109375,44.92589844 -6.1721875,44.91429687 -5.359375,44.90234375 C -3.09308998,44.99614694 -1.1711105,45.36758937 1.0,46.0 C 1.0,45.34 1.0,44.68 1.0,44.0 C 1.99,44.0 2.98,44.0 4.0,44.0 C 4.0,44.66 4.0,45.32 4.0,46.0 C 4.99,46.0 5.98,46.0 7.0,46.0 C 7.0,45.34 7.0,44.68 7.0,44.0 C 9.0307416,44.5076854 11.01893549,45.00650907 13.0,45.6875 C 15.61531161,46.09614244 16.68017466,45.19506154 19.0,44.0 C 20.66614608,43.95834635 22.33385392,43.95834635 24.0,44.0 C 24.680625,43.814375 25.36125,43.62875 26.0625,43.4375 C 28.35616685,42.91957523 29.78601575,43.2883622 32.0,44.0 C 32.33,43.01 32.66,42.02 33.0,41.0 C 29.04240928,40.08262549 29.04240928,40.08262549 25.1015625,40.56640625 C 20.77041837,41.46000662 16.73823032,39.03473296 13.0,37.0 C 2.34331436,28.87201943 1.798228,12.26064543 0.0,0.0 M 8.0,8.0 C 8.59417813,10.87739056 9.1999359,13.75151749 9.8125,16.625 C 9.97814453,17.43324219 10.14378906,18.24148438 10.31445312,19.07421875 C 11.31778677,23.73120134 12.34756208,27.96450516 15.0,32.0 C 17.08821177,33.09886077 17.08821177,33.09886077 19.4375,33.3125 C 20.19933594,33.43238281 20.96117187,33.55226563 21.74609375,33.67578125 C 22.48988281,33.78277344 23.23367188,33.88976562 24.0,34.0 C 25.33714126,34.31771391 26.6719869,34.64606485 28.0,35.0 C 25.5256403,31.96007237 23.08651599,29.08651599 20.3125,26.3125 C 18.0,24.0 18.0,24.0 16.0,21.0 C 16.94875,21.495 17.8975,21.99 18.875,22.5 C 21.72278166,24.14424369 21.72278166,24.14424369 24.0,24.0 C 24.66,23.01 25.32,22.02 26.0,21.0 C 26.33,23.31 26.66,25.62 27.0,28.0 C 27.99,28.33 28.98,28.66 30.0,29.0 C 31.07500245,25.3910632 31.49927061,23.24711424 30.08203125,19.70703125 C 26.44399726,13.62326012 21.83339561,9.9968366 15.0,8.0 C 12.66784036,7.92600108 10.33164723,7.91131158 8.0,8.0 M 36.0,43.0 C 37.485,43.99 37.485,43.99 39.0,45.0 C 39.0,44.34 39.0,43.68 39.0,43.0 C 38.01,43.0 37.02,43.0 36.0,43.0 M 38.0,47.0 C 38.0,47.66 38.0,48.32 38.0,49.0 C 38.66,49.0 39.32,49.0 40.0,49.0 C 40.0,48.34 40.0,47.68 40.0,47.0 C 39.34,47.0 38.68,47.0 38.0,47.0" style="fill: #FFFFFF;" transform="translate(253,910)"/>
	<path d="M 0.0,0.0 C 2.57240651,2.82134908 2.96443474,4.71547788 3.4375,8.5 C 4.48684089,15.02923219 9.08983247,17.99169997 14.0,22.0 C 17.69785874,25.35387188 20.20085324,28.3022279 22.0,33.0 C 21.79296875,35.04296875 21.79296875,35.04296875 21.0,37.0 C 17.55141232,39.78639004 13.19459844,41.2834648 8.8125,41.75 C 5.0,41.0 5.0,41.0 3.66796875,39.44921875 C 2.86215012,38.06127028 2.09046452,36.65313544 1.34765625,35.23046875 C -1.43428645,30.62615199 -6.10536091,27.52623704 -10.25,24.1875 C -15.32793563,17.84008046 -16.51034102,10.9102858 -16.0,3.0 C -10.32010002,-0.51972525 -6.55398829,-1.8884373 0.0,0.0" style="fill: #FFFFFF;" transform="translate(203,909)"/>
	<path d="M 0.0,0.0 C 3.24168994,2.6743942 4.83631187,4.19644009 5.6875,8.375 C 4.78029625,13.15843794 2.53852242,15.75482659 -1.0,19.0 C -3.86120256,20.43060128 -5.84010585,20.38692581 -9.0,20.0 C -10.875,17.5 -10.875,17.5 -12.0,15.0 C -11.071875,14.29875 -10.14375,13.5975 -9.1875,12.875 C -6.09622295,10.30258978 -4.480228,7.78280489 -3.0,4.0 C -3.0,3.01 -3.0,2.02 -3.0,1.0 C -2.01,0.67 -1.02,0.34 0.0,0.0 M -8.0,16.0 C -8.0,16.66 -8.0,17.32 -8.0,18.0 C -5.52372901,17.36078035 -5.52372901,17.36078035 -3.0,16.0 C -1.63921965,13.47627099 -1.63921965,13.47627099 -1.0,11.0 C -3.52076285,11.0 -6.24793589,14.43432569 -8.0,16.0" style="fill: #FFFFFF;" transform="translate(478,905)"/>
	<path d="M 0.0,0.0 C 1.98,0.495 1.98,0.495 4.0,1.0 C 4.0,1.66 4.0,2.32 4.0,3.0 C 2.0,4.625 2.0,4.625 0.0,6.0 C -1.0,3.0 -1.0,3.0 0.0,0.0" style="fill: #FFFFFF;" transform="translate(233,902)"/>
	<path d="M 0.0,0.0 C 0.99,0.33 1.98,0.66 3.0,1.0 C 2.835,1.86625 2.67,2.7325 2.5,3.625 C 1.90466086,6.9019084 1.90466086,6.9019084 2.12890625,9.84765625 C 1.90536037,15.31436922 -0.68883565,19.72939151 -4.0,24.0 C -7.75,25.3125 -7.75,25.3125 -11.0,25.0 C -13.33542357,22.66457643 -13.39362193,21.95323569 -13.5625,18.75 C -13.51227075,15.89606552 -13.41611534,14.50047845 -11.57421875,12.28515625 C -10.34703743,11.29447669 -9.09313471,10.33610679 -7.81640625,9.41015625 C -5.2001083,7.37900881 -3.71683677,4.79780807 -2.0,2.0 C -1.34,1.34 -0.68,0.68 0.0,0.0 M -3.0,11.0 C -7.72930467,14.84075592 -7.72930467,14.84075592 -9.375,20.375 C -9.25125,21.24125 -9.1275,22.1075 -9.0,23.0 C -5.67356033,20.01767477 -3.70847138,17.13629913 -2.0,13.0 C -2.33,12.34 -2.66,11.68 -3.0,11.0" style="fill: #FFFFFF;" transform="translate(557,901)"/>
	<path d="M 0.0,0.0 C 0.33,0.66 0.66,1.32 1.0,2.0 C 0.319375,2.61875 0.319375,2.61875 -0.375,3.25 C -2.05950374,5.06408095 -2.99265971,6.75285627 -4.0,9.0 C -4.8125,7.3125 -4.8125,7.3125 -5.0,5.0 C -2.5625,2.25 -2.5625,2.25 0.0,0.0" style="fill: #FFFFFF;" transform="translate(714,891)"/>
	<path d="M 0.0,0.0 C 0.99,0.33 1.98,0.66 3.0,1.0 C 3.33,4.63 3.66,8.26 4.0,12.0 C 2.68,12.0 1.36,12.0 0.0,12.0 C -0.19401633,10.18818595 -0.38004375,8.37551468 -0.5625,6.5625 C -0.66691406,5.55316406 -0.77132812,4.54382813 -0.87890625,3.50390625 C -0.91886719,2.67761719 -0.95882812,1.85132813 -1.0,1.0 C -0.67,0.67 -0.34,0.34 0.0,0.0" style="fill: #FFFFFF;" transform="translate(589,887)"/>
	<path d="M 0.0,0.0 C 4.55267507,1.46335985 5.9239961,5.03040258 8.0,9.0 C 8.7425,10.175625 8.7425,10.175625 9.5,11.375 C 10.85179726,13.7406452 12.07871694,16.10360782 13.25,18.5625 C 13.60578125,19.30628906 13.9615625,20.05007813 14.328125,20.81640625 C 15.09627683,23.3128997 14.85946409,24.57036113 14.0,27.0 C 13.34,27.0 12.68,27.0 12.0,27.0 C 12.0,26.34 12.0,25.68 12.0,25.0 C 11.34,25.0 10.68,25.0 10.0,25.0 C 7.14420313,20.71630469 5.29649299,16.36258639 3.4375,11.5625 C 3.00308594,10.45003906 2.56867188,9.33757813 2.12109375,8.19140625 C 1.15615424,5.44452271 0.47661873,2.86506763 0.0,0.0" style="fill: #FFFFFF;" transform="translate(359,886)"/>
	<path d="M 0.0,0.0 C 1.32,0.66 2.64,1.32 4.0,2.0 C 3.01,3.65 2.02,5.3 1.0,7.0 C 0.34,6.34 -0.32,5.68 -1.0,5.0 C -0.625,2.375 -0.625,2.375 0.0,0.0" style="fill: #FFFFFF;" transform="translate(232,883)"/>
	<path d="M 0.0,0.0 C -0.33,0.99 -0.66,1.98 -1.0,3.0 C -3.97,2.505 -3.97,2.505 -7.0,2.0 C -5.20949654,-1.58100692 -3.4370813,-1.03112439 0.0,0.0" style="fill: #FFFFFF;" transform="translate(350,882)"/>
	<path d="M 0.0,0.0 C -1.0647372,2.12947441 -2.13175498,4.2567533 -3.21875,6.375 C -6.16428484,12.40975431 -7.72435766,17.78672955 -8.4453125,24.46875 C -9.05795952,27.26449132 -9.79835058,28.23868046 -12.0,30.0 C -17.62707838,28.53206651 -17.62707838,28.53206651 -19.2265625,26.25 C -20.76011504,21.78875624 -19.37172372,17.38223242 -18.0,13.0 C -14.37830754,5.96965582 -8.15313919,0.0 0.0,0.0 M -12.0,10.0 C -14.8254035,13.88492981 -15.73917706,17.21824606 -16.0,22.0 C -15.19420215,24.3715005 -15.19420215,24.3715005 -14.0,26.0 C -13.67,26.0 -13.34,26.0 -13.0,26.0 C -12.93941406,25.26394531 -12.87882812,24.52789063 -12.81640625,23.76953125 C -12.69072266,22.30580078 -12.69072266,22.30580078 -12.5625,20.8125 C -12.48128906,19.84957031 -12.40007812,18.88664063 -12.31640625,17.89453125 C -12.02333849,15.21350398 -11.57296246,12.6337014 -11.0,10.0 C -11.33,10.0 -11.66,10.0 -12.0,10.0" style="fill: #FFFFFF;" transform="translate(488,869)"/>
	<path d="M 0.0,0.0 C 0.99,0.33 1.98,0.66 3.0,1.0 C 3.36237263,2.62318979 3.71465157,4.2486358 4.0625,5.875 C 4.25972656,6.77992188 4.45695313,7.68484375 4.66015625,8.6171875 C 5.0,11.0 5.0,11.0 4.0,13.0 C 2.68,12.34 1.36,11.68 0.0,11.0 C 0.0,7.37 0.0,3.74 0.0,0.0" style="fill: #FFFFFF;" transform="translate(585,865)"/>
	<path d="M 0.0,0.0 C 2.50037734,2.17424117 3.43628586,3.73045798 4.0,7.0 C 3.360625,7.12375 2.72125,7.2475 2.0625,7.375 C 1.0415625,7.684375 1.0415625,7.684375 0.0,8.0 C -0.33,8.66 -0.66,9.32 -1.0,10.0 C -2.27351308,7.45297384 -1.80191925,6.5717055 -1.0625,3.875 C -0.86785156,3.15054688 -0.67320312,2.42609375 -0.47265625,1.6796875 C -0.31667969,1.12539063 -0.16070312,0.57109375 0.0,0.0" style="fill: #FFFFFF;" transform="translate(231,862)"/>
	<path d="M 0.0,0.0 C 6.75,0.875 6.75,0.875 9.0,2.0 C 9.29385962,3.63552171 9.5090819,5.28539477 9.6875,6.9375 C 11.35758498,16.88092901 18.2615015,23.56504967 24.984375,30.67578125 C 28.89240821,35.18213738 31.69474749,39.78562192 31.68359375,45.88671875 C 30.42535171,49.77648416 26.9788683,51.15224518 23.578125,53.06640625 C 20.80857219,54.06932007 19.69787668,54.05267618 17.0,53.0 C 16.814375,52.01 16.62875,51.02 16.4375,50.0 C 15.2356745,45.76377821 12.80938446,43.20742482 9.86328125,40.0234375 C 3.55017839,33.16769896 -3.1794914,24.56122496 -4.5625,15.1875 C -3.93905056,11.65461984 -2.67830879,9.15522053 -1.0,6.0 C -0.29241674,2.7633037 -0.29241674,2.7633037 0.0,0.0" style="fill: #FFFFFF;" transform="translate(193,860)"/>
	<path d="M 0.0,0.0 C 1.72265625,1.3125 1.72265625,1.3125 3.0,3.0 C 3.0,16.66685444 -2.12039913,26.98794505 -11.46875,36.35546875 C -15.82254057,40.90410489 -17.69559193,45.29618682 -18.9375,51.375 C -20.0,55.0 -20.0,55.0 -22.125,56.75 C -25.84118081,57.07314616 -28.0221582,56.03064914 -31.328125,54.43359375 C -33.0,53.0 -33.0,53.0 -33.80859375,50.7265625 C -34.23097292,44.70981428 -32.51893806,38.14200368 -28.70898438,33.38964844 C -26.69783618,31.27061746 -24.57957382,29.29040743 -22.43481445,27.30810547 C -14.99446162,20.37018532 -12.54653497,12.26119347 -9.89453125,2.58984375 C -8.13836193,-2.49461153 -4.55232552,-0.95838432 0.0,0.0" style="fill: #FFFFFF;" transform="translate(714,858)"/>
	<path d="M 0.0,0.0 C 5.69666163,5.09198805 6.5659756,13.24707299 7.06640625,20.5390625 C 6.97767629,23.82729055 6.28981638,25.63122444 4.0,28.0 C 2.1875,29.0 2.1875,29.0 0.0,29.0 C -5.27586207,26.72413793 -5.27586207,26.72413793 -7.0,25.0 C -7.5634447,20.26706449 -6.46885389,18.00838591 -3.94921875,14.07421875 C -2.36362338,10.60939924 -2.40679351,7.02255519 -2.2734375,3.2578125 C -2.18320312,2.51273438 -2.09296875,1.76765625 -2.0,1.0 C -1.34,0.67 -0.68,0.34 0.0,0.0 M 1.0,11.0 C 0.54625,12.093125 0.0925,13.18625 -0.375,14.3125 C -1.41642091,16.82137765 -2.46478044,18.69717067 -4.0,21.0 C -3.6878236,23.64632287 -3.6878236,23.64632287 -3.0,26.0 C -0.52733235,25.65555119 -0.52733235,25.65555119 2.0,25.0 C 3.23887548,22.52224905 3.16741669,20.76346293 3.1875,18.0 C 3.20876953,16.6696875 3.20876953,16.6696875 3.23046875,15.3125 C 3.22713126,12.80480016 3.22713126,12.80480016 1.0,11.0" style="fill: #FFFFFF;" transform="translate(568,855)"/>
	<path d="M 0.0,0.0 C 0.0,3.74161103 -0.51338171,7.28953557 -1.0,11.0 C -0.01,11.33 0.98,11.66 2.0,12.0 C -0.375,13.5625 -0.375,13.5625 -3.0,15.0 C -3.66,14.67 -4.32,14.34 -5.0,14.0 C -4.67,13.34 -4.34,12.68 -4.0,12.0 C -3.34,12.0 -2.68,12.0 -2.0,12.0 C -2.0,11.34 -2.0,10.68 -2.0,10.0 C -3.32,10.0 -4.64,10.0 -6.0,10.0 C -6.66,10.0 -7.32,10.0 -8.0,10.0 C -8.66,11.32 -9.32,12.64 -10.0,14.0 C -10.99,14.0 -11.98,14.0 -13.0,14.0 C -9.06969212,8.66268841 -5.30101923,4.00808771 0.0,0.0" style="fill: #FFFFFF;" transform="translate(909,849)"/>
	<path d="M 0.0,0.0 C -0.19335938,0.60585938 -0.38671875,1.21171875 -0.5859375,1.8359375 C -2.24762513,7.18295215 -3.55471906,12.44364231 -4.47265625,17.96875 C -5.0,20.0 -5.0,20.0 -7.0,22.0 C -9.0625,21.75 -9.0625,21.75 -11.0,21.0 C -12.59763979,17.80472043 -12.36910522,14.47630011 -12.0,11.0 C -10.16732678,6.85237113 -7.26867309,4.09663766 -4.0,1.0 C -3.0,0.0 -3.0,0.0 0.0,0.0 M -7.0,8.0 C -8.93395001,10.90092502 -9.30131941,11.89674737 -9.625,15.1875 C -9.74875,16.445625 -9.8725,17.70375 -10.0,19.0 C -9.34,19.0 -8.68,19.0 -8.0,19.0 C -7.34,15.37 -6.68,11.74 -6.0,8.0 C -6.33,8.0 -6.66,8.0 -7.0,8.0" style="fill: #FFFFFF;" transform="translate(418,848)"/>
	<path d="M 0.0,0.0 C -2.84937792,3.00767669 -5.22698701,5.29605865 -9.0,7.0 C -10.35113205,7.97581759 -11.68946944,8.97029741 -13.0,10.0 C -13.33,9.34 -13.66,8.68 -14.0,8.0 C -13.34,8.0 -12.68,8.0 -12.0,8.0 C -12.0,7.34 -12.0,6.68 -12.0,6.0 C -8.59128194,2.20816953 -5.37570413,-0.97740075 0.0,0.0" style="fill: #FFFFFF;" transform="translate(915,844)"/>
	<path d="M 0.0,0.0 C 6.50378166,2.70990902 10.35095917,9.35508007 13.3125,15.5 C 14.58262713,19.04608336 14.58262713,19.04608336 17.0,20.0 C 18.78461322,20.19180422 20.56974185,20.3800368 22.35717773,20.54345703 C 34.63139865,21.72654817 43.53191589,25.74637933 52.0,35.0 C 61.8557259,47.95597366 63.69021824,60.10958101 62.19140625,76.02734375 C 61.96400864,79.55896784 62.27792166,82.55007017 63.0,86.0 C 60.625,85.75 60.625,85.75 58.0,85.0 C 57.60554688,84.02933594 57.60554688,84.02933594 57.203125,83.0390625 C 56.14318697,80.72568306 56.14318697,80.72568306 53.3828125,80.1640625 C 52.30773437,79.98617187 51.23265625,79.80828125 50.125,79.625 C 35.53542404,76.5467598 24.53829038,68.60442655 16.17578125,56.3203125 C 14.89454807,53.91174803 13.89892873,51.57420501 13.0,49.0 C 12.67515625,48.10539063 12.3503125,47.21078125 12.015625,46.2890625 C 9.66061316,38.914157 9.54539783,32.3638065 12.0,25.0 C 10.85404884,22.64295317 9.66966576,20.47979747 8.3125,18.25 C 7.24414062,16.4453125 7.24414062,16.4453125 6.17578125,14.640625 C 5.0767331,12.79346854 3.970944,10.95318824 2.83740234,9.12695312 C 0.76959576,5.70827686 0.0,4.1018212 0.0,0.0 M 23.0,29.0 C 24.20381448,31.49361571 25.45428722,33.68143083 27.0,36.0 C 28.92991868,36.43392092 28.92991868,36.43392092 31.125,36.4375 C 36.2021553,36.81602373 39.58927625,38.51395571 44.0,41.0 C 41.0,42.0 41.0,42.0 38.80859375,41.1875 C 38.02613281,40.795625 37.24367188,40.40375 36.4375,40.0 C 34.14076453,38.81044695 34.14076453,38.81044695 32.0,38.0 C 31.01,38.495 31.01,38.495 30.0,39.0 C 30.38671875,39.42410156 30.7734375,39.84820313 31.171875,40.28515625 C 35.49720864,45.15650973 39.93677282,50.35483012 41.0,57.0 C 37.942048,55.26440562 35.36620011,53.61527381 33.0,51.0 C 33.33,53.64 33.66,56.28 34.0,59.0 C 31.0,57.0 31.0,57.0 30.25,54.6875 C 30.0,52.0 30.0,52.0 30.875,49.625 C 31.29299762,46.98407821 31.29299762,46.98407821 29.65234375,45.33984375 C 28.40546537,44.13532217 27.14032332,42.94947487 25.859375,41.78125 C 23.39262626,39.41814617 21.77244422,36.90680852 20.0,34.0 C 19.01,34.495 19.01,34.495 18.0,35.0 C 16.70518929,40.28714374 16.76833127,45.01212502 19.0,50.0 C 26.42557095,60.8922049 37.33892641,67.03004079 50.046875,69.49609375 C 52.51749762,70.13351439 54.16480074,71.24459201 56.0,73.0 C 55.7525,71.205625 55.7525,71.205625 55.5,69.375 C 54.87079809,64.00977831 55.05212802,58.72217444 55.2578125,53.33203125 C 54.74805362,46.74378396 50.87925281,41.27414862 46.0,37.0 C 38.74242777,32.36321774 31.52207899,29.97299327 23.0,29.0" style="fill: #FFFFFF;" transform="translate(258,843)"/>
	<path d="M 0.0,0.0 C 3.2102122,3.2102122 2.98974759,6.37460314 3.0625,10.8125 C 3.041875,11.864375 3.02125,12.91625 3.0,14.0 C 1.68,13.67 0.36,13.34 -1.0,13.0 C -1.02696365,11.20841511 -1.04637917,9.41671527 -1.0625,7.625 C -1.07410156,6.62726562 -1.08570313,5.62953125 -1.09765625,4.6015625 C -1.0,2.0 -1.0,2.0 0.0,0.0" style="fill: #FFFFFF;" transform="translate(584,842)"/>
	<path d="M 0.0,0.0 C 0.99,0.33 1.98,0.66 3.0,1.0 C 1.66666667,3.66666667 0.33333333,6.33333333 -1.0,9.0 C -1.625,5.625 -1.625,5.625 -2.0,2.0 C -1.34,1.34 -0.68,0.68 0.0,0.0" style="fill: #FFFFFF;" transform="translate(231,838)"/>
	<path d="M 0.0,0.0 C 0.33,0.66 0.66,1.32 1.0,2.0 C 0.34,2.0 -0.32,2.0 -1.0,2.0 C 0.98,4.64 2.96,7.28 5.0,10.0 C 4.67,10.66 4.34,11.32 4.0,12.0 C 2.66072279,10.54712339 1.32873153,9.08752741 0.0,7.625 C -0.7425,6.81289063 -1.485,6.00078125 -2.25,5.1640625 C -4.0,3.0 -4.0,3.0 -4.0,1.0 C -2.68,0.67 -1.36,0.34 0.0,0.0" style="fill: #FFFFFF;" transform="translate(892,835)"/>
	<path d="M 0.0,0.0 C 2.64,0.0 5.28,0.0 8.0,0.0 C 7.67,1.32 7.34,2.64 7.0,4.0 C 4.69,3.34 2.38,2.68 0.0,2.0 C 0.0,1.34 0.0,0.68 0.0,0.0" style="fill: #FFFFFF;" transform="translate(952,831)"/>
	<path d="M 0.0,0.0 C 0.06058594,0.69867187 0.12117187,1.39734375 0.18359375,2.1171875 C 0.26738281,3.02726563 0.35117188,3.93734375 0.4375,4.875 C 0.55931641,6.23238281 0.55931641,6.23238281 0.68359375,7.6171875 C 0.86989285,10.01110861 0.86989285,10.01110861 2.0,12.0 C 1.34,12.0 0.68,12.0 0.0,12.0 C 0.33,14.64 0.66,17.28 1.0,20.0 C 0.34,20.0 -0.32,20.0 -1.0,20.0 C -1.81578949,13.67763143 -2.43041732,7.38030379 -2.0,1.0 C -1.0,0.0 -1.0,0.0 0.0,0.0" style="fill: #FFFFFF;" transform="translate(157,831)"/>
	<path d="M 0.0,0.0 C 2.64,0.0 5.28,0.0 8.0,0.0 C 9.12109375,1.703125 9.12109375,1.703125 10.0,4.0 C 7.98331513,11.10066288 3.04021043,16.80001345 -2.0,22.0 C -1.278125,22.556875 -0.55625,23.11375 0.1875,23.6875 C 2.97717956,25.98123652 5.48206344,28.4140111 8.0,31.0 C 8.99,31.99 8.99,31.99 10.0,33.0 C 10.125,35.625 10.125,35.625 10.0,38.0 C 9.38125,37.41992188 9.38125,37.41992188 8.75,36.828125 C 1.94080672,30.68769178 -3.68768142,27.29855099 -13.06640625,27.67578125 C -20.58403017,28.50662384 -27.55071432,30.40176424 -34.1953125,34.02734375 C -35.99219879,34.99579545 -37.79968384,35.78873844 -39.6875,36.5625 C -45.68298447,39.16431402 -48.34908598,40.9166499 -51.17260742,46.78149414 C -52.44587714,50.19554015 -52.37799013,53.5394152 -52.3125,57.125 C -52.44389213,65.73118483 -54.57653504,73.14477266 -57.47387695,81.21142578 C -59.50739218,86.95255205 -61.39385563,92.83131926 -61.0,99.0 C -58.75503458,101.3293081 -58.75503458,101.3293081 -56.0,103.0 C -55.62875,104.5159375 -55.62875,104.5159375 -55.25,106.0625 C -54.33348494,109.06002127 -54.33348494,109.06002127 -52.19921875,109.98046875 C -48.29242748,111.30972243 -44.36199046,112.12001025 -40.3125,112.875 C -35.7237722,113.80884636 -33.3248723,115.76038084 -30.0,119.0 C -30.33,118.01 -30.66,117.02 -31.0,116.0 C -30.01,115.67 -29.02,115.34 -28.0,115.0 C -27.67,115.99 -27.34,116.98 -27.0,118.0 C -25.35,118.33 -23.7,118.66 -22.0,119.0 C -23.32,118.01 -24.64,117.02 -26.0,116.0 C -24.62090338,112.59155912 -23.39436506,111.33262465 -20.0625,109.8125 C -19.37285156,109.48894531 -18.68320312,109.16539062 -17.97265625,108.83203125 C -7.59438997,104.45466349 8.15030819,106.61867093 19.0,109.0 C 21.453125,110.57421875 21.453125,110.57421875 23.0,112.0 C 22.67,113.32 22.34,114.64 22.0,116.0 C 22.99,116.0 23.98,116.0 25.0,116.0 C 24.34,117.65 23.68,119.3 23.0,121.0 C 19.95613276,121.08226668 17.92824652,120.97608217 15.0,120.0 C 14.67,120.99 14.34,121.98 14.0,123.0 C 13.34,123.0 12.68,123.0 12.0,123.0 C 12.0,122.34 12.0,121.68 12.0,121.0 C 11.34,121.0 10.68,121.0 10.0,121.0 C 10.0,120.34 10.0,119.68 10.0,119.0 C 9.16597656,119.19335938 8.33195313,119.38671875 7.47265625,119.5859375 C 5.13731971,120.12630174 2.80134849,120.6639283 0.46484375,121.19921875 C -1.56667328,121.66873509 -3.59634359,122.14664187 -5.62109375,122.64453125 C -16.47938596,125.26030702 -16.47938596,125.26030702 -21.0,123.0 C -24.0,122.75 -24.0,122.75 -27.0,123.0 C -27.66,123.66 -28.32,124.32 -29.0,125.0 C -32.693507,125.20146402 -35.47940432,125.17353189 -39.0,124.0 C -40.66621616,123.96125079 -42.33394172,123.9549714 -44.0,124.0 C -44.33,124.66 -44.66,125.32 -45.0,126.0 C -51.27,126.0 -57.54,126.0 -64.0,126.0 C -64.0,125.34 -64.0,124.68 -64.0,124.0 C -66.39068734,122.89363605 -66.39068734,122.89363605 -69.0,122.0 C -69.99,122.495 -69.99,122.495 -71.0,123.0 C -71.0,123.99 -71.0,124.98 -71.0,126.0 C -74.465,126.495 -74.465,126.495 -78.0,127.0 C -78.0,126.34 -78.0,125.68 -78.0,125.0 C -76.68,124.67 -75.36,124.34 -74.0,124.0 C -75.98,123.34 -77.96,122.68 -80.0,122.0 C -80.0,121.34 -80.0,120.68 -80.0,120.0 C -80.66,120.0 -81.32,120.0 -82.0,120.0 C -82.33,120.66 -82.66,121.32 -83.0,122.0 C -85.0,125.0 -85.0,125.0 -88.0,126.0 C -88.5775,126.226875 -89.155,126.45375 -89.75,126.6875 C -93.12204673,127.15583982 -95.79346928,126.03067059 -99.0,125.0 C -100.1446875,124.7215625 -100.1446875,124.7215625 -101.3125,124.4375 C -103.0,124.0 -103.0,124.0 -105.0,123.0 C -105.0,123.66 -105.0,124.32 -105.0,125.0 C -107.64,125.0 -110.28,125.0 -113.0,125.0 C -113.0,124.34 -113.0,123.68 -113.0,123.0 C -113.5775,123.165 -114.155,123.33 -114.75,123.5 C -117.0,124.0 -117.0,124.0 -121.0,124.0 C -121.99,124.33 -122.98,124.66 -124.0,125.0 C -126.26171875,124.66015625 -126.26171875,124.66015625 -128.6875,124.0625 C -129.49574219,123.86785156 -130.30398438,123.67320312 -131.13671875,123.47265625 C -132.05904297,123.23869141 -132.05904297,123.23869141 -133.0,123.0 C -133.66,123.99 -134.32,124.98 -135.0,126.0 C -135.0,125.01 -135.0,124.02 -135.0,123.0 C -137.97,122.505 -137.97,122.505 -141.0,122.0 C -141.495,123.485 -141.495,123.485 -142.0,125.0 C -143.58367747,124.85795259 -145.16693318,124.71119847 -146.75,124.5625 C -147.63171875,124.48128906 -148.5134375,124.40007812 -149.421875,124.31640625 C -151.69350452,124.03761535 -153.79851823,123.61209423 -156.0,123.0 C -156.103125,123.86625 -156.20625,124.7325 -156.3125,125.625 C -157.30501131,130.49732827 -158.44231595,133.83173696 -162.5,136.875 C -167.84929654,138.59441675 -174.06754587,139.27988383 -179.3359375,136.98046875 C -180.15964844,136.49513672 -180.15964844,136.49513672 -181.0,136.0 C -181.19622241,131.78121808 -180.80230168,128.82989106 -179.0,125.0 C -178.34,125.0 -177.68,125.0 -177.0,125.0 C -177.0,124.34 -177.0,123.68 -177.0,123.0 C -174.03,122.505 -174.03,122.505 -171.0,122.0 C -172.83656989,119.03268602 -172.83656989,119.03268602 -175.0,117.0 C -175.34490322,112.94738713 -175.30163882,111.45245824 -173.0,108.0 C -171.00732422,107.12451172 -171.00732422,107.12451172 -168.5546875,106.4296875 C -167.64984619,106.17324463 -166.74500488,105.91680176 -165.81274414,105.65258789 C -164.35856079,105.26768188 -164.35856079,105.26768188 -162.875,104.875 C -161.39277954,104.47752563 -161.39277954,104.47752563 -159.88061523,104.07202148 C -149.6531853,101.45785762 -138.43187083,99.42345359 -128.0,102.0 C -126.22265625,104.109375 -126.22265625,104.109375 -125.0625,106.75 C -124.46115234,108.04164063 -124.46115234,108.04164063 -123.84765625,109.359375 C -122.97704631,112.0715055 -122.83216138,114.17217361 -123.0,117.0 C -121.56208484,116.85831863 -120.1246763,116.71148957 -118.6875,116.5625 C -117.88699219,116.48128906 -117.08648437,116.40007812 -116.26171875,116.31640625 C -113.83912821,116.04734307 -113.83912821,116.04734307 -111.0,115.0 C -110.34,115.66 -109.68,116.32 -109.0,117.0 C -106.99548879,116.69496569 -104.99551782,116.35919321 -103.0,116.0 C -101.0625,116.375 -101.0625,116.375 -99.0,117.0 C -97.824375,117.165 -96.64875,117.33 -95.4375,117.5 C -92.0,118.0 -92.0,118.0 -89.0,119.0 C -89.33,118.34 -89.66,117.68 -90.0,117.0 C -91.95150558,116.80154181 -93.90311749,116.604021 -95.85546875,116.4140625 C -99.2674292,115.75528689 -101.30680289,114.15455769 -104.0,112.0 C -104.0,111.67 -104.0,111.34 -104.0,111.0 C -103.34773438,110.86464844 -102.69546875,110.72929688 -102.0234375,110.58984375 C -100.71246094,110.26693359 -100.71246094,110.26693359 -99.375,109.9375 C -98.51648438,109.74027344 -97.65796875,109.54304687 -96.7734375,109.33984375 C -89.22703607,105.69418785 -86.03172916,97.67509211 -82.8125,90.375 C -82.37832764,89.40095215 -81.94415527,88.4269043 -81.49682617,87.42333984 C -75.26802697,73.15787499 -75.26802697,73.15787499 -76.0,58.0 C -78.14670688,55.51591299 -78.14670688,55.51591299 -81.0,54.0 C -81.78375,53.525625 -82.5675,53.05125 -83.375,52.5625 C -87.48739199,51.68127315 -89.5161329,52.76506639 -93.0,55.0 C -94.2185326,57.72032059 -94.55835575,60.00663339 -95.0,63.0 C -95.99,63.0 -96.98,63.0 -98.0,63.0 C -98.99,58.545 -98.99,58.545 -100.0,54.0 C -100.7425,54.495 -101.485,54.99 -102.25,55.5 C -105.0,57.0 -105.0,57.0 -109.0,57.0 C -108.67670636,53.97746102 -108.43401514,52.42071927 -106.21484375,50.26953125 C -97.65717939,44.7943875 -86.9326142,41.38458353 -76.640625,43.48046875 C -76.09921875,43.65191406 -75.5578125,43.82335937 -75.0,44.0 C -80.20297673,26.03146127 -80.20297673,26.03146127 -92.3125,12.5 C -96.38220711,10.84452592 -100.47697137,9.32079025 -104.64453125,7.9296875 C -107.0,7.0 -107.0,7.0 -109.0,5.0 C -109.0,4.01 -109.0,3.02 -109.0,2.0 C -97.34794649,-0.75735617 -85.84135762,0.27665539 -75.625,6.5 C -68.04706773,11.83657202 -60.7930584,18.45933869 -57.0,27.0 C -55.94941406,26.45730469 -54.89882813,25.91460938 -53.81640625,25.35546875 C -52.39860497,24.63248399 -50.98062663,23.90984639 -49.5625,23.1875 C -48.53092773,22.65286133 -48.53092773,22.65286133 -47.47851562,22.10742188 C -38.29971549,17.45398367 -30.07306043,15.52261228 -19.84179688,14.91601562 C -11.97934093,14.28676491 -7.20978571,10.93336706 -2.0,5.0 C -0.680982,2.33466965 -0.680982,2.33466965 0.0,0.0 M -86.0,116.0 C -86.0,116.66 -86.0,117.32 -86.0,118.0 C -84.1128125,118.0309375 -84.1128125,118.0309375 -82.1875,118.0625 C -81.47980469,118.07410156 -80.77210938,118.08570313 -80.04296875,118.09765625 C -77.79694539,118.08263217 -77.79694539,118.08263217 -75.0,117.0 C -73.10529184,116.9314505 -71.2083166,116.91519628 -69.3125,116.9375 C -68.31863281,116.94652344 -67.32476562,116.95554687 -66.30078125,116.96484375 C -65.16189453,116.98224609 -65.16189453,116.98224609 -64.0,117.0 C -64.0,116.67 -64.0,116.34 -64.0,116.0 C -68.08882017,115.02054878 -71.92638351,114.86608574 -76.125,114.875 C -77.95417969,114.87113281 -77.95417969,114.87113281 -79.8203125,114.8671875 C -83.02339601,114.85426467 -83.02339601,114.85426467 -86.0,116.0 M -165.0,118.0 C -165.99,118.33 -166.98,118.66 -168.0,119.0 C -168.0,119.66 -168.0,120.32 -168.0,121.0 C -166.68,121.0 -165.36,121.0 -164.0,121.0 C -164.33,120.01 -164.66,119.02 -165.0,118.0 M -175.0,129.0 C -173.94369738,130.64570159 -173.94369738,130.64570159 -172.0,132.0 C -167.19797438,132.59141759 -167.19797438,132.59141759 -163.0625,130.5 C -162.711875,130.005 -162.36125,129.51 -162.0,129.0 C -162.33,128.34 -162.66,127.68 -163.0,127.0 C -167.46839215,126.78721942 -170.82262526,127.40861915 -175.0,129.0" style="fill: #FFFFFF;" transform="translate(512,829)"/>
	<path d="M 0.0,0.0 C 1.32,0.0 2.64,0.0 4.0,0.0 C 3.39254603,4.85963179 1.27241033,8.7405518 -1.0,13.0 C -1.99,13.0 -2.98,13.0 -4.0,13.0 C -3.71517632,11.58194169 -3.42181856,10.16559621 -3.125,8.75 C -2.96257813,7.96109375 -2.80015625,7.1721875 -2.6328125,6.359375 C -2.00849925,4.03168856 -1.15161458,2.10968048 0.0,0.0" style="fill: #FFFFFF;" transform="translate(636,825)"/>
	<path d="M 0.0,0.0 C 0.42655567,6.1169898 -1.65210221,9.5959259 -4.58984375,14.8046875 C -7.62345566,21.6786336 -7.06653728,27.5080236 -5.5625,34.625 C -3.58488897,44.33170218 -3.58488897,44.33170218 -4.0,49.0 C -6.47653346,52.57721499 -8.74630325,55.67071977 -13.0,57.0 C -15.75,57.125 -15.75,57.125 -18.0,57.0 C -19.71930994,53.14238862 -20.53109957,49.55115697 -21.125,45.375 C -21.29257813,44.24835937 -21.46015625,43.12171875 -21.6328125,41.9609375 C -22.5326291,32.25440523 -21.84826513,24.78178989 -18.375,15.625 C -18.04371094,14.66722656 -17.71242187,13.70945312 -17.37109375,12.72265625 C -13.97227314,3.50095051 -10.17613034,-0.87725262 0.0,0.0" style="fill: #FFFFFF;" transform="translate(190,825)"/>
	<path d="M 0.0,0.0 C 5.25834344,1.4812235 9.47872263,3.8739044 14.0625,6.75 C 14.75666016,7.16765625 15.45082031,7.5853125 16.16601562,8.015625 C 20.69655535,10.8380695 23.79539703,13.72719604 27.0,18.0 C 22.44099051,17.04724929 19.08195154,14.77574959 15.1875,12.3125 C 14.50107422,11.89033203 13.81464844,11.46816406 13.10742188,11.03320312 C 8.41015969,8.08685986 3.96321119,4.89940139 0.0,1.0 C 0.0,0.67 0.0,0.34 0.0,0.0" style="fill: #FFFFFF;" transform="translate(914,821)"/>
	<path d="M 0.0,0.0 C 4.49558122,0.51378071 6.5405193,2.19106305 10.0,5.0 C 20.28249367,11.7628848 28.84211633,15.60691377 41.23828125,14.8125 C 46.96739819,15.20146409 50.17815976,19.08016386 54.0,23.0 C 57.73325308,26.73325308 61.93821649,26.84982492 67.0,27.0 C 71.02886162,26.76300814 72.71312487,26.19905622 76.0625,23.875 C 79.0,22.0 79.0,22.0 81.75,21.9375 C 84.0,23.0 84.0,23.0 85.3125,25.5625 C 85.539375,26.366875 85.76625,27.17125 86.0,28.0 C 75.98438125,37.0617503 63.08515102,37.36220711 50.125,36.875 C 34.86251047,36.10714929 19.88690878,33.09752524 8.9296875,21.65625 C 4.7453299,15.89640553 0.0,7.18009494 0.0,0.0" style="fill: #FFFFFF;" transform="translate(315,821)"/>
</svg>
